<mxfile host="app.diagrams.net" agent="Mozilla/5.0 (Windows NT 10.0; Win64; x64) AppleWebKit/537.36 (KHTML, like Gecko) Chrome/129.0.0.0 Safari/537.36" version="24.7.17">
  <diagram name="Page-1" id="_EdBeL_A0eybRXGSDDRf">
    <mxGraphModel dx="3744" dy="1896" grid="1" gridSize="10" guides="1" tooltips="1" connect="1" arrows="1" fold="1" page="1" pageScale="1" pageWidth="850" pageHeight="1100" math="0" shadow="0">
      <root>
        <mxCell id="0" />
        <mxCell id="1" parent="0" />
        <mxCell id="fFqnCry0Cv4FBEyFgxTx-53" style="edgeStyle=orthogonalEdgeStyle;rounded=0;orthogonalLoop=1;jettySize=auto;html=1;" edge="1" parent="1" source="jsa2PGFb5WfUZXhi66Lg-1">
          <mxGeometry relative="1" as="geometry">
            <mxPoint x="200.0000000000001" y="354" as="targetPoint" />
          </mxGeometry>
        </mxCell>
        <mxCell id="jsa2PGFb5WfUZXhi66Lg-1" value="Global node" style="whiteSpace=wrap;html=1;aspect=fixed;" parent="1" vertex="1">
          <mxGeometry x="364" y="294.5" width="119" height="119" as="geometry" />
        </mxCell>
        <mxCell id="jsa2PGFb5WfUZXhi66Lg-6" style="edgeStyle=orthogonalEdgeStyle;rounded=0;orthogonalLoop=1;jettySize=auto;html=1;entryX=1;entryY=0.5;entryDx=0;entryDy=0;startArrow=classic;startFill=1;" parent="1" source="jsa2PGFb5WfUZXhi66Lg-2" target="jsa2PGFb5WfUZXhi66Lg-1" edge="1">
          <mxGeometry relative="1" as="geometry">
            <Array as="points">
              <mxPoint x="555" y="354" />
            </Array>
          </mxGeometry>
        </mxCell>
        <mxCell id="fFqnCry0Cv4FBEyFgxTx-223" style="edgeStyle=orthogonalEdgeStyle;rounded=0;orthogonalLoop=1;jettySize=auto;html=1;" edge="1" parent="1" source="jsa2PGFb5WfUZXhi66Lg-2">
          <mxGeometry relative="1" as="geometry">
            <mxPoint x="800" y="118" as="targetPoint" />
          </mxGeometry>
        </mxCell>
        <mxCell id="jsa2PGFb5WfUZXhi66Lg-2" value="Global node" style="whiteSpace=wrap;html=1;aspect=fixed;" parent="1" vertex="1">
          <mxGeometry x="510" y="73" width="90" height="90" as="geometry" />
        </mxCell>
        <mxCell id="jsa2PGFb5WfUZXhi66Lg-4" style="edgeStyle=orthogonalEdgeStyle;rounded=0;orthogonalLoop=1;jettySize=auto;html=1;entryX=0;entryY=0.5;entryDx=0;entryDy=0;startArrow=classic;startFill=1;" parent="1" source="jsa2PGFb5WfUZXhi66Lg-3" target="jsa2PGFb5WfUZXhi66Lg-1" edge="1">
          <mxGeometry relative="1" as="geometry">
            <Array as="points">
              <mxPoint x="305" y="354" />
            </Array>
          </mxGeometry>
        </mxCell>
        <mxCell id="jsa2PGFb5WfUZXhi66Lg-5" style="edgeStyle=orthogonalEdgeStyle;rounded=0;orthogonalLoop=1;jettySize=auto;html=1;startArrow=classic;startFill=1;" parent="1" source="jsa2PGFb5WfUZXhi66Lg-3" target="jsa2PGFb5WfUZXhi66Lg-2" edge="1">
          <mxGeometry relative="1" as="geometry" />
        </mxCell>
        <mxCell id="jsa2PGFb5WfUZXhi66Lg-8" value="Sync" style="edgeLabel;html=1;align=center;verticalAlign=middle;resizable=0;points=[];" parent="jsa2PGFb5WfUZXhi66Lg-5" vertex="1" connectable="0">
          <mxGeometry x="0.0816" y="4" relative="1" as="geometry">
            <mxPoint x="-12" y="4" as="offset" />
          </mxGeometry>
        </mxCell>
        <mxCell id="jsa2PGFb5WfUZXhi66Lg-3" value="Global node" style="whiteSpace=wrap;html=1;aspect=fixed;" parent="1" vertex="1">
          <mxGeometry x="260" y="73" width="90" height="90" as="geometry" />
        </mxCell>
        <mxCell id="jsa2PGFb5WfUZXhi66Lg-7" value="&lt;h1 style=&quot;margin-top: 0px;&quot;&gt;Model Subnet&lt;/h1&gt;" style="text;html=1;whiteSpace=wrap;overflow=hidden;rounded=0;align=center;" parent="1" vertex="1">
          <mxGeometry x="373" y="190" width="110" height="70" as="geometry" />
        </mxCell>
        <mxCell id="jsa2PGFb5WfUZXhi66Lg-9" value="Sync" style="edgeLabel;html=1;align=center;verticalAlign=middle;resizable=0;points=[];" parent="1" vertex="1" connectable="0">
          <mxGeometry x="440" y="143" as="geometry">
            <mxPoint x="116" y="85" as="offset" />
          </mxGeometry>
        </mxCell>
        <mxCell id="jsa2PGFb5WfUZXhi66Lg-10" value="Sync" style="edgeLabel;html=1;align=center;verticalAlign=middle;resizable=0;points=[];" parent="1" vertex="1" connectable="0">
          <mxGeometry x="305" y="289" as="geometry" />
        </mxCell>
        <mxCell id="jsa2PGFb5WfUZXhi66Lg-13" style="edgeStyle=orthogonalEdgeStyle;rounded=0;orthogonalLoop=1;jettySize=auto;html=1;" parent="1" source="jsa2PGFb5WfUZXhi66Lg-11" target="jsa2PGFb5WfUZXhi66Lg-1" edge="1">
          <mxGeometry relative="1" as="geometry" />
        </mxCell>
        <mxCell id="jsa2PGFb5WfUZXhi66Lg-17" style="edgeStyle=orthogonalEdgeStyle;rounded=0;orthogonalLoop=1;jettySize=auto;html=1;entryX=0;entryY=0.5;entryDx=0;entryDy=0;" parent="1" source="jsa2PGFb5WfUZXhi66Lg-11" target="jsa2PGFb5WfUZXhi66Lg-3" edge="1">
          <mxGeometry relative="1" as="geometry">
            <Array as="points">
              <mxPoint x="240" y="615" />
              <mxPoint x="240" y="118" />
            </Array>
          </mxGeometry>
        </mxCell>
        <mxCell id="jsa2PGFb5WfUZXhi66Lg-11" value="Model training&lt;div&gt;Node&lt;/div&gt;" style="ellipse;whiteSpace=wrap;html=1;aspect=fixed;" parent="1" vertex="1">
          <mxGeometry x="280" y="570" width="90" height="90" as="geometry" />
        </mxCell>
        <mxCell id="jsa2PGFb5WfUZXhi66Lg-14" style="edgeStyle=orthogonalEdgeStyle;rounded=0;orthogonalLoop=1;jettySize=auto;html=1;entryX=0.5;entryY=1;entryDx=0;entryDy=0;" parent="1" source="jsa2PGFb5WfUZXhi66Lg-31" target="jsa2PGFb5WfUZXhi66Lg-1" edge="1">
          <mxGeometry relative="1" as="geometry" />
        </mxCell>
        <mxCell id="jsa2PGFb5WfUZXhi66Lg-35" value="Weights" style="edgeLabel;html=1;align=center;verticalAlign=middle;resizable=0;points=[];" parent="jsa2PGFb5WfUZXhi66Lg-14" vertex="1" connectable="0">
          <mxGeometry x="0.7416" relative="1" as="geometry">
            <mxPoint y="37" as="offset" />
          </mxGeometry>
        </mxCell>
        <mxCell id="jsa2PGFb5WfUZXhi66Lg-18" style="edgeStyle=orthogonalEdgeStyle;rounded=0;orthogonalLoop=1;jettySize=auto;html=1;entryX=1;entryY=0.5;entryDx=0;entryDy=0;" parent="1" source="jsa2PGFb5WfUZXhi66Lg-12" target="jsa2PGFb5WfUZXhi66Lg-2" edge="1">
          <mxGeometry relative="1" as="geometry">
            <Array as="points">
              <mxPoint x="620" y="615" />
              <mxPoint x="620" y="118" />
            </Array>
          </mxGeometry>
        </mxCell>
        <mxCell id="fFqnCry0Cv4FBEyFgxTx-39" style="edgeStyle=orthogonalEdgeStyle;rounded=0;orthogonalLoop=1;jettySize=auto;html=1;entryX=0.5;entryY=1;entryDx=0;entryDy=0;" edge="1" parent="1">
          <mxGeometry relative="1" as="geometry">
            <mxPoint x="482" y="615" as="sourcePoint" />
            <mxPoint x="424.5" y="508" as="targetPoint" />
            <Array as="points">
              <mxPoint x="425" y="615" />
            </Array>
          </mxGeometry>
        </mxCell>
        <mxCell id="jsa2PGFb5WfUZXhi66Lg-12" value="Model training&lt;div&gt;Node&lt;/div&gt;" style="ellipse;whiteSpace=wrap;html=1;aspect=fixed;" parent="1" vertex="1">
          <mxGeometry x="480" y="570" width="90" height="90" as="geometry" />
        </mxCell>
        <mxCell id="jsa2PGFb5WfUZXhi66Lg-19" value="computing Resource" style="rounded=0;whiteSpace=wrap;html=1;" parent="1" vertex="1">
          <mxGeometry x="265" y="846" width="120" height="60" as="geometry" />
        </mxCell>
        <mxCell id="jsa2PGFb5WfUZXhi66Lg-21" value="computing Resource" style="rounded=0;whiteSpace=wrap;html=1;" parent="1" vertex="1">
          <mxGeometry x="465" y="846" width="120" height="60" as="geometry" />
        </mxCell>
        <mxCell id="jsa2PGFb5WfUZXhi66Lg-24" style="edgeStyle=orthogonalEdgeStyle;rounded=0;orthogonalLoop=1;jettySize=auto;html=1;entryX=0.5;entryY=1;entryDx=0;entryDy=0;startArrow=classic;startFill=1;" parent="1" source="jsa2PGFb5WfUZXhi66Lg-23" target="jsa2PGFb5WfUZXhi66Lg-21" edge="1">
          <mxGeometry relative="1" as="geometry" />
        </mxCell>
        <mxCell id="jsa2PGFb5WfUZXhi66Lg-25" style="edgeStyle=orthogonalEdgeStyle;rounded=0;orthogonalLoop=1;jettySize=auto;html=1;entryX=0.5;entryY=1;entryDx=0;entryDy=0;startArrow=classic;startFill=1;" parent="1" source="jsa2PGFb5WfUZXhi66Lg-23" target="jsa2PGFb5WfUZXhi66Lg-19" edge="1">
          <mxGeometry relative="1" as="geometry" />
        </mxCell>
        <mxCell id="jsa2PGFb5WfUZXhi66Lg-23" value="Resource Pool Network" style="ellipse;whiteSpace=wrap;html=1;aspect=fixed;" parent="1" vertex="1">
          <mxGeometry x="340" y="976" width="170" height="170" as="geometry" />
        </mxCell>
        <mxCell id="jsa2PGFb5WfUZXhi66Lg-29" value="" style="edgeStyle=orthogonalEdgeStyle;rounded=0;orthogonalLoop=1;jettySize=auto;html=1;" parent="1" source="jsa2PGFb5WfUZXhi66Lg-26" target="jsa2PGFb5WfUZXhi66Lg-23" edge="1">
          <mxGeometry relative="1" as="geometry" />
        </mxCell>
        <mxCell id="jsa2PGFb5WfUZXhi66Lg-26" value="External &lt;br&gt;Providers" style="rounded=1;whiteSpace=wrap;html=1;" parent="1" vertex="1">
          <mxGeometry x="160" y="1031" width="120" height="60" as="geometry" />
        </mxCell>
        <mxCell id="jsa2PGFb5WfUZXhi66Lg-28" value="" style="edgeStyle=orthogonalEdgeStyle;rounded=0;orthogonalLoop=1;jettySize=auto;html=1;" parent="1" source="jsa2PGFb5WfUZXhi66Lg-27" target="jsa2PGFb5WfUZXhi66Lg-23" edge="1">
          <mxGeometry relative="1" as="geometry" />
        </mxCell>
        <mxCell id="jsa2PGFb5WfUZXhi66Lg-27" value="External&lt;br&gt;Providers" style="rounded=1;whiteSpace=wrap;html=1;" parent="1" vertex="1">
          <mxGeometry x="560" y="1031" width="120" height="60" as="geometry" />
        </mxCell>
        <mxCell id="fFqnCry0Cv4FBEyFgxTx-1" value="Resource Hosts" style="rounded=0;whiteSpace=wrap;html=1;" vertex="1" parent="1">
          <mxGeometry x="380" y="1006" width="90" height="30" as="geometry" />
        </mxCell>
        <mxCell id="fFqnCry0Cv4FBEyFgxTx-6" style="edgeStyle=orthogonalEdgeStyle;rounded=0;orthogonalLoop=1;jettySize=auto;html=1;entryX=0;entryY=0.5;entryDx=0;entryDy=0;" edge="1" parent="1" source="fFqnCry0Cv4FBEyFgxTx-3" target="jsa2PGFb5WfUZXhi66Lg-11">
          <mxGeometry relative="1" as="geometry" />
        </mxCell>
        <mxCell id="fFqnCry0Cv4FBEyFgxTx-7" value="&lt;div&gt;&lt;span style=&quot;color: rgb(32, 33, 36); font-family: Roboto, arial, sans-serif; font-size: 13px; text-align: left; white-space: pre-wrap;&quot;&gt;Accuracy&lt;br/&gt;F1-score&lt;br/&gt;Precision&lt;br/&gt;Recall&lt;/span&gt;&lt;br&gt;&lt;/div&gt;" style="edgeLabel;html=1;align=center;verticalAlign=middle;resizable=0;points=[];" vertex="1" connectable="0" parent="fFqnCry0Cv4FBEyFgxTx-6">
          <mxGeometry x="-0.2301" y="-2" relative="1" as="geometry">
            <mxPoint x="-2" y="-2" as="offset" />
          </mxGeometry>
        </mxCell>
        <mxCell id="fFqnCry0Cv4FBEyFgxTx-3" value="Evalutaion metrices" style="rounded=1;whiteSpace=wrap;html=1;" vertex="1" parent="1">
          <mxGeometry x="50" y="585" width="120" height="60" as="geometry" />
        </mxCell>
        <mxCell id="fFqnCry0Cv4FBEyFgxTx-5" style="edgeStyle=orthogonalEdgeStyle;rounded=0;orthogonalLoop=1;jettySize=auto;html=1;entryX=1;entryY=0.5;entryDx=0;entryDy=0;" edge="1" parent="1" source="fFqnCry0Cv4FBEyFgxTx-4" target="jsa2PGFb5WfUZXhi66Lg-12">
          <mxGeometry relative="1" as="geometry" />
        </mxCell>
        <mxCell id="fFqnCry0Cv4FBEyFgxTx-8" value="&lt;span style=&quot;color: rgb(32, 33, 36); font-family: Roboto, arial, sans-serif; font-size: 13px; text-align: left; white-space: pre-wrap;&quot;&gt;Accuracy&lt;/span&gt;&lt;span style=&quot;color: rgb(32, 33, 36); font-family: Roboto, arial, sans-serif; font-size: 13px; text-align: left; white-space: pre-wrap;&quot;&gt;&lt;br/&gt;&lt;/span&gt;&lt;span style=&quot;color: rgb(32, 33, 36); font-family: Roboto, arial, sans-serif; font-size: 13px; text-align: left; white-space: pre-wrap;&quot;&gt;F1-score&lt;/span&gt;&lt;span style=&quot;color: rgb(32, 33, 36); font-family: Roboto, arial, sans-serif; font-size: 13px; text-align: left; white-space: pre-wrap;&quot;&gt;&lt;br/&gt;&lt;/span&gt;&lt;span style=&quot;color: rgb(32, 33, 36); font-family: Roboto, arial, sans-serif; font-size: 13px; text-align: left; white-space: pre-wrap;&quot;&gt;Precision&lt;/span&gt;&lt;span style=&quot;color: rgb(32, 33, 36); font-family: Roboto, arial, sans-serif; font-size: 13px; text-align: left; white-space: pre-wrap;&quot;&gt;&lt;br/&gt;&lt;/span&gt;&lt;span style=&quot;color: rgb(32, 33, 36); font-family: Roboto, arial, sans-serif; font-size: 13px; text-align: left; white-space: pre-wrap;&quot;&gt;Recall&lt;/span&gt;" style="edgeLabel;html=1;align=center;verticalAlign=middle;resizable=0;points=[];" vertex="1" connectable="0" parent="fFqnCry0Cv4FBEyFgxTx-5">
          <mxGeometry x="-0.3695" relative="1" as="geometry">
            <mxPoint as="offset" />
          </mxGeometry>
        </mxCell>
        <mxCell id="fFqnCry0Cv4FBEyFgxTx-12" style="edgeStyle=orthogonalEdgeStyle;rounded=0;orthogonalLoop=1;jettySize=auto;html=1;entryX=1;entryY=0.5;entryDx=0;entryDy=0;" edge="1" parent="1" source="fFqnCry0Cv4FBEyFgxTx-46" target="fFqnCry0Cv4FBEyFgxTx-11">
          <mxGeometry relative="1" as="geometry">
            <Array as="points" />
          </mxGeometry>
        </mxCell>
        <mxCell id="fFqnCry0Cv4FBEyFgxTx-4" value="Evalutaion metrices" style="rounded=1;whiteSpace=wrap;html=1;" vertex="1" parent="1">
          <mxGeometry x="690" y="585" width="120" height="60" as="geometry" />
        </mxCell>
        <mxCell id="fFqnCry0Cv4FBEyFgxTx-11" value="Gobal Receiver Module" style="rounded=1;whiteSpace=wrap;html=1;" vertex="1" parent="1">
          <mxGeometry x="350" y="430" width="150" height="30" as="geometry" />
        </mxCell>
        <mxCell id="fFqnCry0Cv4FBEyFgxTx-14" value="&lt;span id=&quot;docs-internal-guid-6943a75f-7fff-e89c-d8d8-6e341c577ea2&quot;&gt;&lt;span style=&quot;font-family: Arial, sans-serif; color: rgb(67, 67, 67); background-color: transparent; font-variant-numeric: normal; font-variant-east-asian: normal; font-variant-alternates: normal; font-variant-position: normal; vertical-align: baseline; white-space-collapse: preserve;&quot;&gt;&lt;font style=&quot;font-size: 11px;&quot;&gt;Model architecture&lt;/font&gt;&lt;/span&gt;&lt;/span&gt;" style="rounded=0;whiteSpace=wrap;html=1;" vertex="1" parent="1">
          <mxGeometry x="255" y="760" width="335" height="59" as="geometry" />
        </mxCell>
        <mxCell id="fFqnCry0Cv4FBEyFgxTx-16" value="" style="edgeStyle=orthogonalEdgeStyle;rounded=0;orthogonalLoop=1;jettySize=auto;html=1;" edge="1" parent="1" source="jsa2PGFb5WfUZXhi66Lg-21">
          <mxGeometry relative="1" as="geometry">
            <mxPoint x="525" y="846" as="sourcePoint" />
            <mxPoint x="525.0270270270271" y="819" as="targetPoint" />
          </mxGeometry>
        </mxCell>
        <mxCell id="fFqnCry0Cv4FBEyFgxTx-32" value="" style="edgeStyle=orthogonalEdgeStyle;rounded=0;orthogonalLoop=1;jettySize=auto;html=1;" edge="1" parent="1" source="fFqnCry0Cv4FBEyFgxTx-17" target="fFqnCry0Cv4FBEyFgxTx-14">
          <mxGeometry relative="1" as="geometry" />
        </mxCell>
        <mxCell id="fFqnCry0Cv4FBEyFgxTx-17" value="Dataset&lt;br&gt;Provider" style="whiteSpace=wrap;html=1;aspect=fixed;" vertex="1" parent="1">
          <mxGeometry x="75" y="750" width="80" height="80" as="geometry" />
        </mxCell>
        <mxCell id="fFqnCry0Cv4FBEyFgxTx-31" value="" style="edgeStyle=orthogonalEdgeStyle;rounded=0;orthogonalLoop=1;jettySize=auto;html=1;" edge="1" parent="1" source="fFqnCry0Cv4FBEyFgxTx-18">
          <mxGeometry relative="1" as="geometry">
            <mxPoint x="595" y="799" as="targetPoint" />
          </mxGeometry>
        </mxCell>
        <mxCell id="fFqnCry0Cv4FBEyFgxTx-18" value="Dataset&lt;br&gt;Provider" style="whiteSpace=wrap;html=1;aspect=fixed;" vertex="1" parent="1">
          <mxGeometry x="707" y="749" width="80" height="80" as="geometry" />
        </mxCell>
        <mxCell id="fFqnCry0Cv4FBEyFgxTx-24" style="edgeStyle=orthogonalEdgeStyle;rounded=0;orthogonalLoop=1;jettySize=auto;html=1;entryX=0.5;entryY=1;entryDx=0;entryDy=0;" edge="1" parent="1" source="fFqnCry0Cv4FBEyFgxTx-21" target="fFqnCry0Cv4FBEyFgxTx-17">
          <mxGeometry relative="1" as="geometry" />
        </mxCell>
        <mxCell id="fFqnCry0Cv4FBEyFgxTx-21" value="Local" style="rounded=1;whiteSpace=wrap;html=1;" vertex="1" parent="1">
          <mxGeometry x="40" y="879" width="70" height="60" as="geometry" />
        </mxCell>
        <mxCell id="fFqnCry0Cv4FBEyFgxTx-25" style="edgeStyle=orthogonalEdgeStyle;rounded=0;orthogonalLoop=1;jettySize=auto;html=1;entryX=0.5;entryY=1;entryDx=0;entryDy=0;" edge="1" parent="1" source="fFqnCry0Cv4FBEyFgxTx-22" target="fFqnCry0Cv4FBEyFgxTx-17">
          <mxGeometry relative="1" as="geometry" />
        </mxCell>
        <mxCell id="fFqnCry0Cv4FBEyFgxTx-22" value="hosted dataset" style="rounded=1;whiteSpace=wrap;html=1;" vertex="1" parent="1">
          <mxGeometry x="120" y="879" width="70" height="60" as="geometry" />
        </mxCell>
        <mxCell id="fFqnCry0Cv4FBEyFgxTx-29" style="edgeStyle=orthogonalEdgeStyle;rounded=0;orthogonalLoop=1;jettySize=auto;html=1;" edge="1" parent="1" source="fFqnCry0Cv4FBEyFgxTx-26" target="fFqnCry0Cv4FBEyFgxTx-18">
          <mxGeometry relative="1" as="geometry" />
        </mxCell>
        <mxCell id="fFqnCry0Cv4FBEyFgxTx-26" value="Local" style="rounded=1;whiteSpace=wrap;html=1;" vertex="1" parent="1">
          <mxGeometry x="672" y="869" width="70" height="60" as="geometry" />
        </mxCell>
        <mxCell id="fFqnCry0Cv4FBEyFgxTx-30" style="edgeStyle=orthogonalEdgeStyle;rounded=0;orthogonalLoop=1;jettySize=auto;html=1;entryX=0.5;entryY=1;entryDx=0;entryDy=0;" edge="1" parent="1" source="fFqnCry0Cv4FBEyFgxTx-27" target="fFqnCry0Cv4FBEyFgxTx-18">
          <mxGeometry relative="1" as="geometry" />
        </mxCell>
        <mxCell id="fFqnCry0Cv4FBEyFgxTx-27" value="hosted dataset" style="rounded=1;whiteSpace=wrap;html=1;" vertex="1" parent="1">
          <mxGeometry x="752" y="869" width="70" height="60" as="geometry" />
        </mxCell>
        <mxCell id="jsa2PGFb5WfUZXhi66Lg-31" value="Update Synchronization" style="rounded=1;whiteSpace=wrap;html=1;" parent="1" vertex="1">
          <mxGeometry x="325" y="480" width="195" height="28" as="geometry" />
        </mxCell>
        <mxCell id="fFqnCry0Cv4FBEyFgxTx-42" style="edgeStyle=orthogonalEdgeStyle;rounded=0;orthogonalLoop=1;jettySize=auto;html=1;entryX=0.5;entryY=1;entryDx=0;entryDy=0;" edge="1" parent="1" source="fFqnCry0Cv4FBEyFgxTx-40" target="jsa2PGFb5WfUZXhi66Lg-11">
          <mxGeometry relative="1" as="geometry" />
        </mxCell>
        <mxCell id="fFqnCry0Cv4FBEyFgxTx-43" style="edgeStyle=orthogonalEdgeStyle;rounded=0;orthogonalLoop=1;jettySize=auto;html=1;entryX=0.5;entryY=1;entryDx=0;entryDy=0;" edge="1" parent="1" source="fFqnCry0Cv4FBEyFgxTx-40" target="jsa2PGFb5WfUZXhi66Lg-12">
          <mxGeometry relative="1" as="geometry" />
        </mxCell>
        <mxCell id="fFqnCry0Cv4FBEyFgxTx-40" value="&lt;span style=&quot;color: rgb(67, 67, 67); font-family: Arial, sans-serif; font-size: 11px; white-space-collapse: preserve;&quot;&gt;Hyperparameter Optimizer&lt;/span&gt;" style="rounded=0;whiteSpace=wrap;html=1;" vertex="1" parent="1">
          <mxGeometry x="255" y="690" width="335" height="40" as="geometry" />
        </mxCell>
        <mxCell id="fFqnCry0Cv4FBEyFgxTx-47" value="" style="edgeStyle=orthogonalEdgeStyle;rounded=0;orthogonalLoop=1;jettySize=auto;html=1;entryX=1;entryY=0.5;entryDx=0;entryDy=0;" edge="1" parent="1" source="fFqnCry0Cv4FBEyFgxTx-4" target="fFqnCry0Cv4FBEyFgxTx-46">
          <mxGeometry relative="1" as="geometry">
            <mxPoint x="750" y="585" as="sourcePoint" />
            <mxPoint x="500" y="445" as="targetPoint" />
            <Array as="points">
              <mxPoint x="750" y="445" />
            </Array>
          </mxGeometry>
        </mxCell>
        <mxCell id="fFqnCry0Cv4FBEyFgxTx-52" value="model metric data" style="edgeLabel;html=1;align=center;verticalAlign=middle;resizable=0;points=[];" vertex="1" connectable="0" parent="fFqnCry0Cv4FBEyFgxTx-47">
          <mxGeometry x="-0.2181" y="-2" relative="1" as="geometry">
            <mxPoint as="offset" />
          </mxGeometry>
        </mxCell>
        <mxCell id="fFqnCry0Cv4FBEyFgxTx-57" value="" style="edgeStyle=orthogonalEdgeStyle;rounded=0;orthogonalLoop=1;jettySize=auto;html=1;" edge="1" parent="1" source="fFqnCry0Cv4FBEyFgxTx-46" target="fFqnCry0Cv4FBEyFgxTx-56">
          <mxGeometry relative="1" as="geometry" />
        </mxCell>
        <mxCell id="fFqnCry0Cv4FBEyFgxTx-46" value="Model evaluation &lt;br&gt;Epoch" style="html=1;verticalLabelPosition=bottom;align=center;labelBackgroundColor=#ffffff;verticalAlign=top;strokeWidth=2;strokeColor=#0080F0;shadow=0;dashed=0;shape=mxgraph.ios7.icons.repeat;pointerEvents=1" vertex="1" parent="1">
          <mxGeometry x="660" y="420" width="68" height="50" as="geometry" />
        </mxCell>
        <mxCell id="fFqnCry0Cv4FBEyFgxTx-49" value="" style="edgeStyle=orthogonalEdgeStyle;rounded=0;orthogonalLoop=1;jettySize=auto;html=1;entryX=0;entryY=0.5;entryDx=0;entryDy=0;" edge="1" parent="1" source="fFqnCry0Cv4FBEyFgxTx-3" target="fFqnCry0Cv4FBEyFgxTx-48">
          <mxGeometry relative="1" as="geometry">
            <mxPoint x="110" y="585" as="sourcePoint" />
            <mxPoint x="350" y="445" as="targetPoint" />
            <Array as="points" />
          </mxGeometry>
        </mxCell>
        <mxCell id="fFqnCry0Cv4FBEyFgxTx-51" value="model metric data" style="edgeLabel;html=1;align=center;verticalAlign=middle;resizable=0;points=[];" vertex="1" connectable="0" parent="fFqnCry0Cv4FBEyFgxTx-49">
          <mxGeometry x="-0.3435" relative="1" as="geometry">
            <mxPoint as="offset" />
          </mxGeometry>
        </mxCell>
        <mxCell id="fFqnCry0Cv4FBEyFgxTx-50" style="edgeStyle=orthogonalEdgeStyle;rounded=0;orthogonalLoop=1;jettySize=auto;html=1;" edge="1" parent="1" source="fFqnCry0Cv4FBEyFgxTx-48" target="fFqnCry0Cv4FBEyFgxTx-11">
          <mxGeometry relative="1" as="geometry" />
        </mxCell>
        <mxCell id="fFqnCry0Cv4FBEyFgxTx-55" value="" style="edgeStyle=orthogonalEdgeStyle;rounded=0;orthogonalLoop=1;jettySize=auto;html=1;" edge="1" parent="1" source="fFqnCry0Cv4FBEyFgxTx-48" target="fFqnCry0Cv4FBEyFgxTx-54">
          <mxGeometry relative="1" as="geometry" />
        </mxCell>
        <mxCell id="fFqnCry0Cv4FBEyFgxTx-48" value="Model evaluation &lt;br&gt;Epoch" style="html=1;verticalLabelPosition=bottom;align=center;labelBackgroundColor=#ffffff;verticalAlign=top;strokeWidth=2;strokeColor=#0080F0;shadow=0;dashed=0;shape=mxgraph.ios7.icons.repeat;pointerEvents=1" vertex="1" parent="1">
          <mxGeometry x="130" y="420" width="68" height="50" as="geometry" />
        </mxCell>
        <mxCell id="fFqnCry0Cv4FBEyFgxTx-54" value="Gobal Validation Module" style="rounded=1;whiteSpace=wrap;html=1;" vertex="1" parent="1">
          <mxGeometry x="115" y="329.5" width="98" height="49" as="geometry" />
        </mxCell>
        <mxCell id="fFqnCry0Cv4FBEyFgxTx-58" style="edgeStyle=orthogonalEdgeStyle;rounded=0;orthogonalLoop=1;jettySize=auto;html=1;" edge="1" parent="1" source="fFqnCry0Cv4FBEyFgxTx-56" target="jsa2PGFb5WfUZXhi66Lg-1">
          <mxGeometry relative="1" as="geometry" />
        </mxCell>
        <mxCell id="fFqnCry0Cv4FBEyFgxTx-56" value="Gobal Validation Module" style="rounded=1;whiteSpace=wrap;html=1;" vertex="1" parent="1">
          <mxGeometry x="645" y="329.5" width="98" height="49" as="geometry" />
        </mxCell>
        <mxCell id="fFqnCry0Cv4FBEyFgxTx-59" value="Data &lt;br&gt;Aggregator" style="rounded=0;whiteSpace=wrap;html=1;" vertex="1" parent="1">
          <mxGeometry x="378" y="300" width="95" height="40" as="geometry" />
        </mxCell>
        <mxCell id="fFqnCry0Cv4FBEyFgxTx-60" value="Preproccessing" style="rounded=1;whiteSpace=wrap;html=1;" vertex="1" parent="1">
          <mxGeometry x="475" y="774.5" width="110" height="30" as="geometry" />
        </mxCell>
        <mxCell id="fFqnCry0Cv4FBEyFgxTx-61" value="Preproccessing" style="rounded=1;whiteSpace=wrap;html=1;" vertex="1" parent="1">
          <mxGeometry x="260" y="774.5" width="110" height="30" as="geometry" />
        </mxCell>
        <mxCell id="fFqnCry0Cv4FBEyFgxTx-63" value="Oracle Node" style="shape=cube;whiteSpace=wrap;html=1;boundedLbl=1;backgroundOutline=1;darkOpacity=0.05;darkOpacity2=0.1;" vertex="1" parent="1">
          <mxGeometry x="1619" y="606" width="120" height="80" as="geometry" />
        </mxCell>
        <mxCell id="fFqnCry0Cv4FBEyFgxTx-64" value="" style="edgeStyle=orthogonalEdgeStyle;rounded=0;orthogonalLoop=1;jettySize=auto;html=1;startArrow=classic;startFill=1;dashed=1;" edge="1" parent="1" source="fFqnCry0Cv4FBEyFgxTx-67" target="fFqnCry0Cv4FBEyFgxTx-77">
          <mxGeometry relative="1" as="geometry" />
        </mxCell>
        <mxCell id="fFqnCry0Cv4FBEyFgxTx-65" style="edgeStyle=orthogonalEdgeStyle;rounded=0;orthogonalLoop=1;jettySize=auto;html=1;entryX=0;entryY=0.5;entryDx=0;entryDy=0;" edge="1" parent="1" source="fFqnCry0Cv4FBEyFgxTx-67" target="fFqnCry0Cv4FBEyFgxTx-151">
          <mxGeometry relative="1" as="geometry">
            <Array as="points">
              <mxPoint x="1311" y="715" />
            </Array>
          </mxGeometry>
        </mxCell>
        <mxCell id="fFqnCry0Cv4FBEyFgxTx-66" style="edgeStyle=orthogonalEdgeStyle;rounded=0;orthogonalLoop=1;jettySize=auto;html=1;entryX=0;entryY=0.5;entryDx=0;entryDy=0;" edge="1" parent="1" source="fFqnCry0Cv4FBEyFgxTx-67" target="fFqnCry0Cv4FBEyFgxTx-150">
          <mxGeometry relative="1" as="geometry">
            <Array as="points">
              <mxPoint x="1311" y="524" />
            </Array>
          </mxGeometry>
        </mxCell>
        <mxCell id="fFqnCry0Cv4FBEyFgxTx-67" value="Global&lt;br&gt;Node" style="shape=cylinder3;whiteSpace=wrap;html=1;boundedLbl=1;backgroundOutline=1;size=15;" vertex="1" parent="1">
          <mxGeometry x="1258" y="606" width="60" height="80" as="geometry" />
        </mxCell>
        <mxCell id="fFqnCry0Cv4FBEyFgxTx-68" value="" style="edgeStyle=orthogonalEdgeStyle;rounded=0;orthogonalLoop=1;jettySize=auto;html=1;" edge="1" parent="1" source="fFqnCry0Cv4FBEyFgxTx-69" target="fFqnCry0Cv4FBEyFgxTx-83">
          <mxGeometry relative="1" as="geometry" />
        </mxCell>
        <mxCell id="fFqnCry0Cv4FBEyFgxTx-69" value="Oracle Node" style="shape=cube;whiteSpace=wrap;html=1;boundedLbl=1;backgroundOutline=1;darkOpacity=0.05;darkOpacity2=0.1;" vertex="1" parent="1">
          <mxGeometry x="1619" y="413" width="120" height="80" as="geometry" />
        </mxCell>
        <mxCell id="fFqnCry0Cv4FBEyFgxTx-70" value="" style="edgeStyle=orthogonalEdgeStyle;rounded=0;orthogonalLoop=1;jettySize=auto;html=1;" edge="1" parent="1" source="fFqnCry0Cv4FBEyFgxTx-182" target="fFqnCry0Cv4FBEyFgxTx-69">
          <mxGeometry relative="1" as="geometry" />
        </mxCell>
        <mxCell id="fFqnCry0Cv4FBEyFgxTx-71" style="edgeStyle=orthogonalEdgeStyle;rounded=0;orthogonalLoop=1;jettySize=auto;html=1;entryX=0;entryY=0.5;entryDx=0;entryDy=0;" edge="1" parent="1" source="fFqnCry0Cv4FBEyFgxTx-72" target="fFqnCry0Cv4FBEyFgxTx-150">
          <mxGeometry relative="1" as="geometry">
            <Array as="points">
              <mxPoint x="1311" y="524" />
            </Array>
          </mxGeometry>
        </mxCell>
        <mxCell id="fFqnCry0Cv4FBEyFgxTx-72" value="Global&lt;br&gt;Node" style="shape=cylinder3;whiteSpace=wrap;html=1;boundedLbl=1;backgroundOutline=1;size=15;" vertex="1" parent="1">
          <mxGeometry x="1258" y="413" width="60" height="80" as="geometry" />
        </mxCell>
        <mxCell id="fFqnCry0Cv4FBEyFgxTx-73" style="edgeStyle=orthogonalEdgeStyle;rounded=0;orthogonalLoop=1;jettySize=auto;html=1;startArrow=classicThin;startFill=1;" edge="1" parent="1" source="fFqnCry0Cv4FBEyFgxTx-74" target="fFqnCry0Cv4FBEyFgxTx-157">
          <mxGeometry relative="1" as="geometry" />
        </mxCell>
        <mxCell id="fFqnCry0Cv4FBEyFgxTx-74" value="Oracle Node" style="shape=cube;whiteSpace=wrap;html=1;boundedLbl=1;backgroundOutline=1;darkOpacity=0.05;darkOpacity2=0.1;" vertex="1" parent="1">
          <mxGeometry x="1619" y="796" width="120" height="80" as="geometry" />
        </mxCell>
        <mxCell id="fFqnCry0Cv4FBEyFgxTx-75" value="" style="edgeStyle=orthogonalEdgeStyle;rounded=0;orthogonalLoop=1;jettySize=auto;html=1;" edge="1" parent="1" source="fFqnCry0Cv4FBEyFgxTx-179" target="fFqnCry0Cv4FBEyFgxTx-74">
          <mxGeometry relative="1" as="geometry" />
        </mxCell>
        <mxCell id="fFqnCry0Cv4FBEyFgxTx-76" style="edgeStyle=orthogonalEdgeStyle;rounded=0;orthogonalLoop=1;jettySize=auto;html=1;entryX=0;entryY=0.5;entryDx=0;entryDy=0;" edge="1" parent="1" source="fFqnCry0Cv4FBEyFgxTx-77" target="fFqnCry0Cv4FBEyFgxTx-151">
          <mxGeometry relative="1" as="geometry">
            <Array as="points">
              <mxPoint x="1311" y="715" />
            </Array>
          </mxGeometry>
        </mxCell>
        <mxCell id="fFqnCry0Cv4FBEyFgxTx-77" value="Global&lt;br&gt;Node" style="shape=cylinder3;whiteSpace=wrap;html=1;boundedLbl=1;backgroundOutline=1;size=15;" vertex="1" parent="1">
          <mxGeometry x="1258" y="794" width="60" height="80" as="geometry" />
        </mxCell>
        <mxCell id="fFqnCry0Cv4FBEyFgxTx-78" style="edgeStyle=orthogonalEdgeStyle;rounded=0;orthogonalLoop=1;jettySize=auto;html=1;entryX=0.5;entryY=1;entryDx=0;entryDy=0;entryPerimeter=0;startArrow=classic;startFill=1;dashed=1;" edge="1" parent="1" source="fFqnCry0Cv4FBEyFgxTx-67" target="fFqnCry0Cv4FBEyFgxTx-72">
          <mxGeometry relative="1" as="geometry" />
        </mxCell>
        <mxCell id="fFqnCry0Cv4FBEyFgxTx-79" style="edgeStyle=orthogonalEdgeStyle;rounded=0;orthogonalLoop=1;jettySize=auto;html=1;startArrow=classic;startFill=1;dashed=1;exitX=-0.104;exitY=0.656;exitDx=0;exitDy=0;exitPerimeter=0;" edge="1" parent="1" source="fFqnCry0Cv4FBEyFgxTx-77">
          <mxGeometry relative="1" as="geometry">
            <mxPoint x="1232" y="848" as="sourcePoint" />
            <mxPoint x="1252" y="458" as="targetPoint" />
            <Array as="points">
              <mxPoint x="1172" y="849" />
              <mxPoint x="1172" y="458" />
            </Array>
          </mxGeometry>
        </mxCell>
        <mxCell id="fFqnCry0Cv4FBEyFgxTx-80" value="Modal Update (weights)&lt;br&gt;Data" style="text;html=1;align=center;verticalAlign=middle;whiteSpace=wrap;rounded=0;" vertex="1" parent="1">
          <mxGeometry x="1180" y="733" width="82" height="23" as="geometry" />
        </mxCell>
        <mxCell id="fFqnCry0Cv4FBEyFgxTx-81" value="Data + ZK proof" style="text;html=1;align=center;verticalAlign=middle;whiteSpace=wrap;rounded=0;" vertex="1" parent="1">
          <mxGeometry x="2135" y="413" width="60" height="30" as="geometry" />
        </mxCell>
        <mxCell id="fFqnCry0Cv4FBEyFgxTx-82" style="edgeStyle=orthogonalEdgeStyle;rounded=0;orthogonalLoop=1;jettySize=auto;html=1;entryX=0;entryY=0.5;entryDx=0;entryDy=0;" edge="1" parent="1" source="fFqnCry0Cv4FBEyFgxTx-83" target="fFqnCry0Cv4FBEyFgxTx-101">
          <mxGeometry relative="1" as="geometry" />
        </mxCell>
        <mxCell id="fFqnCry0Cv4FBEyFgxTx-83" value="Circom circuits" style="rounded=0;whiteSpace=wrap;html=1;" vertex="1" parent="1">
          <mxGeometry x="1809" y="428" width="90" height="50" as="geometry" />
        </mxCell>
        <mxCell id="fFqnCry0Cv4FBEyFgxTx-84" style="edgeStyle=orthogonalEdgeStyle;rounded=0;orthogonalLoop=1;jettySize=auto;html=1;entryX=0.5;entryY=0;entryDx=0;entryDy=0;" edge="1" parent="1" source="fFqnCry0Cv4FBEyFgxTx-85" target="fFqnCry0Cv4FBEyFgxTx-83">
          <mxGeometry relative="1" as="geometry">
            <Array as="points">
              <mxPoint x="1854" y="363" />
            </Array>
          </mxGeometry>
        </mxCell>
        <mxCell id="fFqnCry0Cv4FBEyFgxTx-85" value="Signal inputs" style="shape=mxgraph.uml25.action;html=1;align=center;verticalAlign=middle;absoluteArcSize=1;arcSize=10;dashed=0;spacingLeft=10;flipH=1;whiteSpace=wrap;" vertex="1" parent="1">
          <mxGeometry x="1674" y="343" width="110" height="40" as="geometry" />
        </mxCell>
        <mxCell id="fFqnCry0Cv4FBEyFgxTx-86" value="Oracle data" style="text;verticalAlign=middle;align=right;html=1;" vertex="1" parent="fFqnCry0Cv4FBEyFgxTx-85">
          <mxGeometry x="-60" width="60" height="40" as="geometry" />
        </mxCell>
        <mxCell id="fFqnCry0Cv4FBEyFgxTx-87" style="edgeStyle=orthogonalEdgeStyle;rounded=0;orthogonalLoop=1;jettySize=auto;html=1;entryX=0.952;entryY=0.665;entryDx=0;entryDy=0;entryPerimeter=0;" edge="1" parent="1" source="fFqnCry0Cv4FBEyFgxTx-69" target="fFqnCry0Cv4FBEyFgxTx-85">
          <mxGeometry relative="1" as="geometry" />
        </mxCell>
        <mxCell id="fFqnCry0Cv4FBEyFgxTx-88" value="" style="edgeStyle=orthogonalEdgeStyle;rounded=0;orthogonalLoop=1;jettySize=auto;html=1;" edge="1" parent="1" target="fFqnCry0Cv4FBEyFgxTx-90">
          <mxGeometry relative="1" as="geometry">
            <mxPoint x="1739" y="653" as="sourcePoint" />
          </mxGeometry>
        </mxCell>
        <mxCell id="fFqnCry0Cv4FBEyFgxTx-89" style="edgeStyle=orthogonalEdgeStyle;rounded=0;orthogonalLoop=1;jettySize=auto;html=1;entryX=0;entryY=0.5;entryDx=0;entryDy=0;" edge="1" parent="1" source="fFqnCry0Cv4FBEyFgxTx-90" target="fFqnCry0Cv4FBEyFgxTx-105">
          <mxGeometry relative="1" as="geometry" />
        </mxCell>
        <mxCell id="fFqnCry0Cv4FBEyFgxTx-90" value="Circom circuits" style="rounded=0;whiteSpace=wrap;html=1;" vertex="1" parent="1">
          <mxGeometry x="1809" y="628" width="90" height="50" as="geometry" />
        </mxCell>
        <mxCell id="fFqnCry0Cv4FBEyFgxTx-91" style="edgeStyle=orthogonalEdgeStyle;rounded=0;orthogonalLoop=1;jettySize=auto;html=1;entryX=0.5;entryY=0;entryDx=0;entryDy=0;" edge="1" parent="1" source="fFqnCry0Cv4FBEyFgxTx-92" target="fFqnCry0Cv4FBEyFgxTx-90">
          <mxGeometry relative="1" as="geometry">
            <Array as="points">
              <mxPoint x="1854" y="563" />
            </Array>
          </mxGeometry>
        </mxCell>
        <mxCell id="fFqnCry0Cv4FBEyFgxTx-92" value="Signal inputs" style="shape=mxgraph.uml25.action;html=1;align=center;verticalAlign=middle;absoluteArcSize=1;arcSize=10;dashed=0;spacingLeft=10;flipH=1;whiteSpace=wrap;" vertex="1" parent="1">
          <mxGeometry x="1674" y="543" width="110" height="40" as="geometry" />
        </mxCell>
        <mxCell id="fFqnCry0Cv4FBEyFgxTx-93" value="Oracle data" style="text;verticalAlign=middle;align=right;html=1;" vertex="1" parent="fFqnCry0Cv4FBEyFgxTx-92">
          <mxGeometry x="-60" width="60" height="40" as="geometry" />
        </mxCell>
        <mxCell id="fFqnCry0Cv4FBEyFgxTx-94" value="" style="edgeStyle=orthogonalEdgeStyle;rounded=0;orthogonalLoop=1;jettySize=auto;html=1;" edge="1" parent="1" target="fFqnCry0Cv4FBEyFgxTx-96">
          <mxGeometry relative="1" as="geometry">
            <mxPoint x="1737" y="843" as="sourcePoint" />
          </mxGeometry>
        </mxCell>
        <mxCell id="fFqnCry0Cv4FBEyFgxTx-95" style="edgeStyle=orthogonalEdgeStyle;rounded=0;orthogonalLoop=1;jettySize=auto;html=1;entryX=0;entryY=0.5;entryDx=0;entryDy=0;" edge="1" parent="1" source="fFqnCry0Cv4FBEyFgxTx-96" target="fFqnCry0Cv4FBEyFgxTx-109">
          <mxGeometry relative="1" as="geometry" />
        </mxCell>
        <mxCell id="fFqnCry0Cv4FBEyFgxTx-96" value="Circom circuits" style="rounded=0;whiteSpace=wrap;html=1;" vertex="1" parent="1">
          <mxGeometry x="1807" y="818" width="90" height="50" as="geometry" />
        </mxCell>
        <mxCell id="fFqnCry0Cv4FBEyFgxTx-97" style="edgeStyle=orthogonalEdgeStyle;rounded=0;orthogonalLoop=1;jettySize=auto;html=1;entryX=0.5;entryY=0;entryDx=0;entryDy=0;" edge="1" parent="1" source="fFqnCry0Cv4FBEyFgxTx-98" target="fFqnCry0Cv4FBEyFgxTx-96">
          <mxGeometry relative="1" as="geometry">
            <Array as="points">
              <mxPoint x="1852" y="753" />
            </Array>
          </mxGeometry>
        </mxCell>
        <mxCell id="fFqnCry0Cv4FBEyFgxTx-98" value="Signal inputs" style="shape=mxgraph.uml25.action;html=1;align=center;verticalAlign=middle;absoluteArcSize=1;arcSize=10;dashed=0;spacingLeft=10;flipH=1;whiteSpace=wrap;" vertex="1" parent="1">
          <mxGeometry x="1672" y="733" width="110" height="40" as="geometry" />
        </mxCell>
        <mxCell id="fFqnCry0Cv4FBEyFgxTx-99" value="Oracle data" style="text;verticalAlign=middle;align=right;html=1;" vertex="1" parent="fFqnCry0Cv4FBEyFgxTx-98">
          <mxGeometry x="-60" width="60" height="40" as="geometry" />
        </mxCell>
        <mxCell id="fFqnCry0Cv4FBEyFgxTx-100" style="edgeStyle=orthogonalEdgeStyle;rounded=0;orthogonalLoop=1;jettySize=auto;html=1;" edge="1" parent="1" source="fFqnCry0Cv4FBEyFgxTx-101" target="fFqnCry0Cv4FBEyFgxTx-185">
          <mxGeometry relative="1" as="geometry" />
        </mxCell>
        <mxCell id="fFqnCry0Cv4FBEyFgxTx-101" value="" style="strokeColor=#dddddd;shadow=1;strokeWidth=1;rounded=1;absoluteArcSize=1;arcSize=2;" vertex="1" parent="1">
          <mxGeometry x="1953" y="423" width="170" height="60" as="geometry" />
        </mxCell>
        <mxCell id="fFqnCry0Cv4FBEyFgxTx-102" value="verification key" style="editableCssRules=.*;html=1;fontColor=#999999;shape=image;verticalLabelPosition=middle;verticalAlign=middle;labelPosition=right;align=left;spacingLeft=20;part=1;points=[];imageAspect=0;image=data:image/svg+xml,PHN2ZyB4bWxucz0iaHR0cDovL3d3dy53My5vcmcvMjAwMC9zdmciIHhtbG5zOnY9Imh0dHBzOi8vdmVjdGEuaW8vbmFubyIgd2lkdGg9IjMxMC43NzU2MDY1NDM4NjAyNSIgaGVpZ2h0PSIzNzcuOTUzMDI4ODM1NTI1NDYiIHZpZXdCb3g9Ii0wLjE0MDAwMDAwMDU5NjA0NjQ1IC0wLjQ2NzAwMDAwNzYyOTM5NDUzIDgyLjIyNTk5NzkyNDgwNDY5IDEwMC4wMDAwMDc2MjkzOTQ1MyI+JiN4YTs8c3R5bGUgdHlwZT0idGV4dC9jc3MiPiYjeGE7CS5zdDB7ZmlsbDojNDI4NWY0O30mI3hhOwkuc3Qxe2ZpbGw6IzY2OWRmNjt9JiN4YTsJLnN0MntmaWxsOiNmZmY7fSYjeGE7PC9zdHlsZT4mI3hhOwk8cGF0aCBjbGFzcz0ic3QwIiBkPSJNNDAuOTczLS40NjdsNDEuMTEzIDE3LjQ5M3YyOS42NTRjMCAyNy40MTgtMjQuNjA4IDUwLjgzNi00MS4xMTMgNTIuODUzeiIvPiYjeGE7CTxwYXRoIGNsYXNzPSJzdDEiIGQ9Ik00MC45NzMtLjQ2N0wtLjE0IDE3LjAyNXYyOS42NTRjMCAyNy40MTggMjQuNjA4IDUwLjgzNiA0MS4xMTMgNTIuODUzeiIvPiYjeGE7CTxwYXRoIGNsYXNzPSJzdDIiIGQ9Ik00MS4yNTMgMTYuNjA1Yy05LjU4NCAwLTE3LjQ0NSA3Ljg2Mi0xNy40NDUgMTcuNDQ1IDAgOC4wODQgNS41OTQgMTQuOTQyIDEzLjA5NiAxNi44OTF2OS40ODhoLTkuODY5djguNzAxaDkuODY5djUuMzc3aC02LjMxNXY4LjcwMWg2LjMxNXYyLjE5N2g4LjcwMVY1MC45NDFDNTMuMTA2IDQ4Ljk5MiA1OC43IDQyLjEzNCA1OC43IDM0LjA1YzAtOS41ODQtNy44NjMtMTcuNDQ1LTE3LjQ0Ny0xNy40NDV6bTAgOC42OTlBOC42OCA4LjY4IDAgMCAxIDUwIDM0LjA1YTguNjggOC42OCAwIDAgMS04Ljc0OCA4Ljc0NiA4LjY4IDguNjggMCAwIDEtOC43NDYtOC43NDYgOC42OCA4LjY4IDAgMCAxIDguNzQ2LTguNzQ2eiIvPiYjeGE7PC9zdmc+;" vertex="1" parent="fFqnCry0Cv4FBEyFgxTx-101">
          <mxGeometry width="24" height="30" relative="1" as="geometry">
            <mxPoint x="18" y="15" as="offset" />
          </mxGeometry>
        </mxCell>
        <mxCell id="fFqnCry0Cv4FBEyFgxTx-103" value="Data + ZK proof" style="text;html=1;align=center;verticalAlign=middle;whiteSpace=wrap;rounded=0;" vertex="1" parent="1">
          <mxGeometry x="2141" y="586" width="60" height="30" as="geometry" />
        </mxCell>
        <mxCell id="fFqnCry0Cv4FBEyFgxTx-104" style="edgeStyle=orthogonalEdgeStyle;rounded=0;orthogonalLoop=1;jettySize=auto;html=1;entryX=0;entryY=0.5;entryDx=0;entryDy=0;" edge="1" parent="1" source="fFqnCry0Cv4FBEyFgxTx-105" target="fFqnCry0Cv4FBEyFgxTx-185">
          <mxGeometry relative="1" as="geometry" />
        </mxCell>
        <mxCell id="fFqnCry0Cv4FBEyFgxTx-105" value="" style="strokeColor=#dddddd;shadow=1;strokeWidth=1;rounded=1;absoluteArcSize=1;arcSize=2;" vertex="1" parent="1">
          <mxGeometry x="1953" y="623" width="170" height="60" as="geometry" />
        </mxCell>
        <mxCell id="fFqnCry0Cv4FBEyFgxTx-106" value="verification key" style="editableCssRules=.*;html=1;fontColor=#999999;shape=image;verticalLabelPosition=middle;verticalAlign=middle;labelPosition=right;align=left;spacingLeft=20;part=1;points=[];imageAspect=0;image=data:image/svg+xml,PHN2ZyB4bWxucz0iaHR0cDovL3d3dy53My5vcmcvMjAwMC9zdmciIHhtbG5zOnY9Imh0dHBzOi8vdmVjdGEuaW8vbmFubyIgd2lkdGg9IjMxMC43NzU2MDY1NDM4NjAyNSIgaGVpZ2h0PSIzNzcuOTUzMDI4ODM1NTI1NDYiIHZpZXdCb3g9Ii0wLjE0MDAwMDAwMDU5NjA0NjQ1IC0wLjQ2NzAwMDAwNzYyOTM5NDUzIDgyLjIyNTk5NzkyNDgwNDY5IDEwMC4wMDAwMDc2MjkzOTQ1MyI+JiN4YTs8c3R5bGUgdHlwZT0idGV4dC9jc3MiPiYjeGE7CS5zdDB7ZmlsbDojNDI4NWY0O30mI3hhOwkuc3Qxe2ZpbGw6IzY2OWRmNjt9JiN4YTsJLnN0MntmaWxsOiNmZmY7fSYjeGE7PC9zdHlsZT4mI3hhOwk8cGF0aCBjbGFzcz0ic3QwIiBkPSJNNDAuOTczLS40NjdsNDEuMTEzIDE3LjQ5M3YyOS42NTRjMCAyNy40MTgtMjQuNjA4IDUwLjgzNi00MS4xMTMgNTIuODUzeiIvPiYjeGE7CTxwYXRoIGNsYXNzPSJzdDEiIGQ9Ik00MC45NzMtLjQ2N0wtLjE0IDE3LjAyNXYyOS42NTRjMCAyNy40MTggMjQuNjA4IDUwLjgzNiA0MS4xMTMgNTIuODUzeiIvPiYjeGE7CTxwYXRoIGNsYXNzPSJzdDIiIGQ9Ik00MS4yNTMgMTYuNjA1Yy05LjU4NCAwLTE3LjQ0NSA3Ljg2Mi0xNy40NDUgMTcuNDQ1IDAgOC4wODQgNS41OTQgMTQuOTQyIDEzLjA5NiAxNi44OTF2OS40ODhoLTkuODY5djguNzAxaDkuODY5djUuMzc3aC02LjMxNXY4LjcwMWg2LjMxNXYyLjE5N2g4LjcwMVY1MC45NDFDNTMuMTA2IDQ4Ljk5MiA1OC43IDQyLjEzNCA1OC43IDM0LjA1YzAtOS41ODQtNy44NjMtMTcuNDQ1LTE3LjQ0Ny0xNy40NDV6bTAgOC42OTlBOC42OCA4LjY4IDAgMCAxIDUwIDM0LjA1YTguNjggOC42OCAwIDAgMS04Ljc0OCA4Ljc0NiA4LjY4IDguNjggMCAwIDEtOC43NDYtOC43NDYgOC42OCA4LjY4IDAgMCAxIDguNzQ2LTguNzQ2eiIvPiYjeGE7PC9zdmc+;" vertex="1" parent="fFqnCry0Cv4FBEyFgxTx-105">
          <mxGeometry width="24" height="30" relative="1" as="geometry">
            <mxPoint x="18" y="15" as="offset" />
          </mxGeometry>
        </mxCell>
        <mxCell id="fFqnCry0Cv4FBEyFgxTx-107" value="Data + ZK proof" style="text;html=1;align=center;verticalAlign=middle;whiteSpace=wrap;rounded=0;" vertex="1" parent="1">
          <mxGeometry x="2135" y="803" width="60" height="30" as="geometry" />
        </mxCell>
        <mxCell id="fFqnCry0Cv4FBEyFgxTx-108" style="edgeStyle=orthogonalEdgeStyle;rounded=0;orthogonalLoop=1;jettySize=auto;html=1;entryX=0.5;entryY=1;entryDx=0;entryDy=0;" edge="1" parent="1" source="fFqnCry0Cv4FBEyFgxTx-109" target="fFqnCry0Cv4FBEyFgxTx-185">
          <mxGeometry relative="1" as="geometry" />
        </mxCell>
        <mxCell id="fFqnCry0Cv4FBEyFgxTx-109" value="" style="strokeColor=#dddddd;shadow=1;strokeWidth=1;rounded=1;absoluteArcSize=1;arcSize=2;" vertex="1" parent="1">
          <mxGeometry x="1953" y="813" width="170" height="60" as="geometry" />
        </mxCell>
        <mxCell id="fFqnCry0Cv4FBEyFgxTx-110" value="verification key" style="editableCssRules=.*;html=1;fontColor=#999999;shape=image;verticalLabelPosition=middle;verticalAlign=middle;labelPosition=right;align=left;spacingLeft=20;part=1;points=[];imageAspect=0;image=data:image/svg+xml,PHN2ZyB4bWxucz0iaHR0cDovL3d3dy53My5vcmcvMjAwMC9zdmciIHhtbG5zOnY9Imh0dHBzOi8vdmVjdGEuaW8vbmFubyIgd2lkdGg9IjMxMC43NzU2MDY1NDM4NjAyNSIgaGVpZ2h0PSIzNzcuOTUzMDI4ODM1NTI1NDYiIHZpZXdCb3g9Ii0wLjE0MDAwMDAwMDU5NjA0NjQ1IC0wLjQ2NzAwMDAwNzYyOTM5NDUzIDgyLjIyNTk5NzkyNDgwNDY5IDEwMC4wMDAwMDc2MjkzOTQ1MyI+JiN4YTs8c3R5bGUgdHlwZT0idGV4dC9jc3MiPiYjeGE7CS5zdDB7ZmlsbDojNDI4NWY0O30mI3hhOwkuc3Qxe2ZpbGw6IzY2OWRmNjt9JiN4YTsJLnN0MntmaWxsOiNmZmY7fSYjeGE7PC9zdHlsZT4mI3hhOwk8cGF0aCBjbGFzcz0ic3QwIiBkPSJNNDAuOTczLS40NjdsNDEuMTEzIDE3LjQ5M3YyOS42NTRjMCAyNy40MTgtMjQuNjA4IDUwLjgzNi00MS4xMTMgNTIuODUzeiIvPiYjeGE7CTxwYXRoIGNsYXNzPSJzdDEiIGQ9Ik00MC45NzMtLjQ2N0wtLjE0IDE3LjAyNXYyOS42NTRjMCAyNy40MTggMjQuNjA4IDUwLjgzNiA0MS4xMTMgNTIuODUzeiIvPiYjeGE7CTxwYXRoIGNsYXNzPSJzdDIiIGQ9Ik00MS4yNTMgMTYuNjA1Yy05LjU4NCAwLTE3LjQ0NSA3Ljg2Mi0xNy40NDUgMTcuNDQ1IDAgOC4wODQgNS41OTQgMTQuOTQyIDEzLjA5NiAxNi44OTF2OS40ODhoLTkuODY5djguNzAxaDkuODY5djUuMzc3aC02LjMxNXY4LjcwMWg2LjMxNXYyLjE5N2g4LjcwMVY1MC45NDFDNTMuMTA2IDQ4Ljk5MiA1OC43IDQyLjEzNCA1OC43IDM0LjA1YzAtOS41ODQtNy44NjMtMTcuNDQ1LTE3LjQ0Ny0xNy40NDV6bTAgOC42OTlBOC42OCA4LjY4IDAgMCAxIDUwIDM0LjA1YTguNjggOC42OCAwIDAgMS04Ljc0OCA4Ljc0NiA4LjY4IDguNjggMCAwIDEtOC43NDYtOC43NDYgOC42OCA4LjY4IDAgMCAxIDguNzQ2LTguNzQ2eiIvPiYjeGE7PC9zdmc+;" vertex="1" parent="fFqnCry0Cv4FBEyFgxTx-109">
          <mxGeometry width="24" height="30" relative="1" as="geometry">
            <mxPoint x="18" y="15" as="offset" />
          </mxGeometry>
        </mxCell>
        <mxCell id="fFqnCry0Cv4FBEyFgxTx-111" style="edgeStyle=orthogonalEdgeStyle;rounded=0;orthogonalLoop=1;jettySize=auto;html=1;entryX=1;entryY=0.5;entryDx=0;entryDy=0;" edge="1" parent="1" source="fFqnCry0Cv4FBEyFgxTx-155" target="fFqnCry0Cv4FBEyFgxTx-157">
          <mxGeometry relative="1" as="geometry">
            <Array as="points" />
          </mxGeometry>
        </mxCell>
        <mxCell id="fFqnCry0Cv4FBEyFgxTx-112" style="edgeStyle=orthogonalEdgeStyle;rounded=0;orthogonalLoop=1;jettySize=auto;html=1;entryX=1;entryY=0.5;entryDx=0;entryDy=0;" edge="1" parent="1" source="fFqnCry0Cv4FBEyFgxTx-113" target="fFqnCry0Cv4FBEyFgxTx-155">
          <mxGeometry relative="1" as="geometry">
            <Array as="points">
              <mxPoint x="2441" y="936" />
            </Array>
          </mxGeometry>
        </mxCell>
        <mxCell id="fFqnCry0Cv4FBEyFgxTx-113" value="QUANTINIUM&lt;br&gt;LAYER 1&lt;br&gt;RPC" style="rounded=0;whiteSpace=wrap;html=1;" vertex="1" parent="1">
          <mxGeometry x="2386" y="436.5" width="110" height="433" as="geometry" />
        </mxCell>
        <mxCell id="fFqnCry0Cv4FBEyFgxTx-114" value="" style="edgeStyle=orthogonalEdgeStyle;rounded=0;orthogonalLoop=1;jettySize=auto;html=1;" edge="1" parent="1" source="fFqnCry0Cv4FBEyFgxTx-115" target="fFqnCry0Cv4FBEyFgxTx-117">
          <mxGeometry relative="1" as="geometry" />
        </mxCell>
        <mxCell id="fFqnCry0Cv4FBEyFgxTx-115" value="Verifier&lt;br&gt;Contract" style="shape=card;whiteSpace=wrap;html=1;" vertex="1" parent="1">
          <mxGeometry x="2553" y="588.5" width="80" height="100" as="geometry" />
        </mxCell>
        <mxCell id="fFqnCry0Cv4FBEyFgxTx-116" value="" style="edgeStyle=orthogonalEdgeStyle;rounded=0;orthogonalLoop=1;jettySize=auto;html=1;" edge="1" parent="1" source="fFqnCry0Cv4FBEyFgxTx-163" target="fFqnCry0Cv4FBEyFgxTx-133">
          <mxGeometry relative="1" as="geometry" />
        </mxCell>
        <mxCell id="fFqnCry0Cv4FBEyFgxTx-117" value="&lt;div&gt;Data-Aggeragator&lt;br&gt;Smart contract&lt;br&gt;&lt;/div&gt;" style="shape=card;whiteSpace=wrap;html=1;" vertex="1" parent="1">
          <mxGeometry x="2553" y="415.5" width="80" height="100" as="geometry" />
        </mxCell>
        <mxCell id="fFqnCry0Cv4FBEyFgxTx-118" value="" style="edgeStyle=orthogonalEdgeStyle;rounded=0;orthogonalLoop=1;jettySize=auto;html=1;" edge="1" parent="1" source="fFqnCry0Cv4FBEyFgxTx-119" target="fFqnCry0Cv4FBEyFgxTx-115">
          <mxGeometry relative="1" as="geometry" />
        </mxCell>
        <mxCell id="fFqnCry0Cv4FBEyFgxTx-119" value="Circom lib" style="shape=card;whiteSpace=wrap;html=1;" vertex="1" parent="1">
          <mxGeometry x="2553" y="768.5" width="80" height="100" as="geometry" />
        </mxCell>
        <mxCell id="fFqnCry0Cv4FBEyFgxTx-120" style="edgeStyle=orthogonalEdgeStyle;rounded=0;orthogonalLoop=1;jettySize=auto;html=1;entryX=0;entryY=0;entryDx=0;entryDy=65;entryPerimeter=0;" edge="1" parent="1" source="fFqnCry0Cv4FBEyFgxTx-113" target="fFqnCry0Cv4FBEyFgxTx-115">
          <mxGeometry relative="1" as="geometry" />
        </mxCell>
        <mxCell id="fFqnCry0Cv4FBEyFgxTx-121" style="edgeStyle=orthogonalEdgeStyle;rounded=0;orthogonalLoop=1;jettySize=auto;html=1;entryX=0.963;entryY=0.715;entryDx=0;entryDy=0;entryPerimeter=0;" edge="1" parent="1" source="fFqnCry0Cv4FBEyFgxTx-63" target="fFqnCry0Cv4FBEyFgxTx-92">
          <mxGeometry relative="1" as="geometry" />
        </mxCell>
        <mxCell id="fFqnCry0Cv4FBEyFgxTx-122" style="edgeStyle=orthogonalEdgeStyle;rounded=0;orthogonalLoop=1;jettySize=auto;html=1;entryX=0.93;entryY=0.647;entryDx=0;entryDy=0;entryPerimeter=0;" edge="1" parent="1" source="fFqnCry0Cv4FBEyFgxTx-74" target="fFqnCry0Cv4FBEyFgxTx-98">
          <mxGeometry relative="1" as="geometry" />
        </mxCell>
        <mxCell id="fFqnCry0Cv4FBEyFgxTx-123" value="Oracle Data State" style="whiteSpace=wrap;html=1;" vertex="1" parent="1">
          <mxGeometry x="3033" y="515.5" width="120" height="60" as="geometry" />
        </mxCell>
        <mxCell id="fFqnCry0Cv4FBEyFgxTx-124" style="edgeStyle=orthogonalEdgeStyle;rounded=0;orthogonalLoop=1;jettySize=auto;html=1;entryX=0.5;entryY=0;entryDx=0;entryDy=0;" edge="1" parent="1" source="fFqnCry0Cv4FBEyFgxTx-125" target="fFqnCry0Cv4FBEyFgxTx-123">
          <mxGeometry relative="1" as="geometry">
            <Array as="points">
              <mxPoint x="2898" y="483" />
              <mxPoint x="3093" y="483" />
            </Array>
          </mxGeometry>
        </mxCell>
        <mxCell id="fFqnCry0Cv4FBEyFgxTx-125" value="Data&amp;nbsp;" style="rounded=1;whiteSpace=wrap;html=1;" vertex="1" parent="1">
          <mxGeometry x="2838" y="393" width="120" height="60" as="geometry" />
        </mxCell>
        <mxCell id="fFqnCry0Cv4FBEyFgxTx-126" style="edgeStyle=orthogonalEdgeStyle;rounded=0;orthogonalLoop=1;jettySize=auto;html=1;entryX=0.5;entryY=0;entryDx=0;entryDy=0;" edge="1" parent="1" source="fFqnCry0Cv4FBEyFgxTx-127" target="fFqnCry0Cv4FBEyFgxTx-123">
          <mxGeometry relative="1" as="geometry" />
        </mxCell>
        <mxCell id="fFqnCry0Cv4FBEyFgxTx-127" value="Proofs" style="rounded=1;whiteSpace=wrap;html=1;" vertex="1" parent="1">
          <mxGeometry x="2968" y="393" width="120" height="60" as="geometry" />
        </mxCell>
        <mxCell id="fFqnCry0Cv4FBEyFgxTx-128" style="edgeStyle=orthogonalEdgeStyle;rounded=0;orthogonalLoop=1;jettySize=auto;html=1;entryX=0.5;entryY=0;entryDx=0;entryDy=0;" edge="1" parent="1" source="fFqnCry0Cv4FBEyFgxTx-129" target="fFqnCry0Cv4FBEyFgxTx-123">
          <mxGeometry relative="1" as="geometry" />
        </mxCell>
        <mxCell id="fFqnCry0Cv4FBEyFgxTx-129" value="Rewards &amp;amp; Penalties" style="rounded=1;whiteSpace=wrap;html=1;" vertex="1" parent="1">
          <mxGeometry x="3098" y="393" width="120" height="60" as="geometry" />
        </mxCell>
        <mxCell id="fFqnCry0Cv4FBEyFgxTx-130" style="edgeStyle=orthogonalEdgeStyle;rounded=0;orthogonalLoop=1;jettySize=auto;html=1;entryX=0.5;entryY=0;entryDx=0;entryDy=0;" edge="1" parent="1" source="fFqnCry0Cv4FBEyFgxTx-131" target="fFqnCry0Cv4FBEyFgxTx-123">
          <mxGeometry relative="1" as="geometry">
            <Array as="points">
              <mxPoint x="3288" y="483" />
              <mxPoint x="3093" y="483" />
            </Array>
          </mxGeometry>
        </mxCell>
        <mxCell id="fFqnCry0Cv4FBEyFgxTx-131" value="Oracle Metrics" style="rounded=1;whiteSpace=wrap;html=1;" vertex="1" parent="1">
          <mxGeometry x="3228" y="393" width="120" height="60" as="geometry" />
        </mxCell>
        <mxCell id="fFqnCry0Cv4FBEyFgxTx-132" value="" style="edgeStyle=orthogonalEdgeStyle;rounded=0;orthogonalLoop=1;jettySize=auto;html=1;" edge="1" parent="1" source="fFqnCry0Cv4FBEyFgxTx-133" target="fFqnCry0Cv4FBEyFgxTx-135">
          <mxGeometry relative="1" as="geometry" />
        </mxCell>
        <mxCell id="fFqnCry0Cv4FBEyFgxTx-133" value="Mempool" style="shape=cylinder3;whiteSpace=wrap;html=1;boundedLbl=1;backgroundOutline=1;size=15;" vertex="1" parent="1">
          <mxGeometry x="2686" y="598.5" width="80" height="95" as="geometry" />
        </mxCell>
        <mxCell id="fFqnCry0Cv4FBEyFgxTx-134" value="" style="edgeStyle=orthogonalEdgeStyle;rounded=0;orthogonalLoop=1;jettySize=auto;html=1;" edge="1" parent="1" source="fFqnCry0Cv4FBEyFgxTx-135" target="fFqnCry0Cv4FBEyFgxTx-139">
          <mxGeometry relative="1" as="geometry" />
        </mxCell>
        <mxCell id="fFqnCry0Cv4FBEyFgxTx-135" value="Quantinium Blockchain&lt;br&gt;Consensus" style="whiteSpace=wrap;html=1;" vertex="1" parent="1">
          <mxGeometry x="2826" y="597.5" width="170" height="97" as="geometry" />
        </mxCell>
        <mxCell id="fFqnCry0Cv4FBEyFgxTx-136" value="" style="edgeStyle=orthogonalEdgeStyle;rounded=0;orthogonalLoop=1;jettySize=auto;html=1;startArrow=classic;startFill=1;" edge="1" parent="1" source="fFqnCry0Cv4FBEyFgxTx-139" target="fFqnCry0Cv4FBEyFgxTx-123">
          <mxGeometry relative="1" as="geometry" />
        </mxCell>
        <mxCell id="fFqnCry0Cv4FBEyFgxTx-137" value="" style="edgeStyle=orthogonalEdgeStyle;rounded=0;orthogonalLoop=1;jettySize=auto;html=1;startArrow=classic;startFill=1;" edge="1" parent="1" source="fFqnCry0Cv4FBEyFgxTx-139" target="fFqnCry0Cv4FBEyFgxTx-140">
          <mxGeometry relative="1" as="geometry" />
        </mxCell>
        <mxCell id="fFqnCry0Cv4FBEyFgxTx-138" value="" style="edgeStyle=orthogonalEdgeStyle;rounded=0;orthogonalLoop=1;jettySize=auto;html=1;startArrow=classic;startFill=1;" edge="1" parent="1" source="fFqnCry0Cv4FBEyFgxTx-139" target="fFqnCry0Cv4FBEyFgxTx-165">
          <mxGeometry relative="1" as="geometry" />
        </mxCell>
        <mxCell id="fFqnCry0Cv4FBEyFgxTx-139" value="Block Finality" style="whiteSpace=wrap;html=1;" vertex="1" parent="1">
          <mxGeometry x="3033" y="616" width="120" height="60" as="geometry" />
        </mxCell>
        <mxCell id="fFqnCry0Cv4FBEyFgxTx-140" value="Core States" style="whiteSpace=wrap;html=1;" vertex="1" parent="1">
          <mxGeometry x="3033" y="713" width="120" height="60" as="geometry" />
        </mxCell>
        <mxCell id="fFqnCry0Cv4FBEyFgxTx-141" style="edgeStyle=orthogonalEdgeStyle;rounded=0;orthogonalLoop=1;jettySize=auto;html=1;entryX=0.5;entryY=1;entryDx=0;entryDy=0;" edge="1" parent="1" source="fFqnCry0Cv4FBEyFgxTx-142" target="fFqnCry0Cv4FBEyFgxTx-140">
          <mxGeometry relative="1" as="geometry">
            <Array as="points">
              <mxPoint x="2898" y="810" />
              <mxPoint x="3093" y="810" />
            </Array>
          </mxGeometry>
        </mxCell>
        <mxCell id="fFqnCry0Cv4FBEyFgxTx-142" value="Accounts" style="rounded=1;whiteSpace=wrap;html=1;" vertex="1" parent="1">
          <mxGeometry x="2838" y="838.5" width="120" height="60" as="geometry" />
        </mxCell>
        <mxCell id="fFqnCry0Cv4FBEyFgxTx-143" value="Transaction" style="rounded=1;whiteSpace=wrap;html=1;" vertex="1" parent="1">
          <mxGeometry x="2968" y="838.5" width="120" height="60" as="geometry" />
        </mxCell>
        <mxCell id="fFqnCry0Cv4FBEyFgxTx-144" style="edgeStyle=orthogonalEdgeStyle;rounded=0;orthogonalLoop=1;jettySize=auto;html=1;entryX=0.5;entryY=1;entryDx=0;entryDy=0;" edge="1" parent="1" source="fFqnCry0Cv4FBEyFgxTx-145" target="fFqnCry0Cv4FBEyFgxTx-140">
          <mxGeometry relative="1" as="geometry" />
        </mxCell>
        <mxCell id="fFqnCry0Cv4FBEyFgxTx-145" value="Blocks" style="rounded=1;whiteSpace=wrap;html=1;" vertex="1" parent="1">
          <mxGeometry x="3098" y="838.5" width="120" height="60" as="geometry" />
        </mxCell>
        <mxCell id="fFqnCry0Cv4FBEyFgxTx-146" style="edgeStyle=orthogonalEdgeStyle;rounded=0;orthogonalLoop=1;jettySize=auto;html=1;entryX=0.5;entryY=1;entryDx=0;entryDy=0;" edge="1" parent="1" source="fFqnCry0Cv4FBEyFgxTx-147" target="fFqnCry0Cv4FBEyFgxTx-140">
          <mxGeometry relative="1" as="geometry">
            <Array as="points">
              <mxPoint x="3288" y="810" />
              <mxPoint x="3093" y="810" />
            </Array>
          </mxGeometry>
        </mxCell>
        <mxCell id="fFqnCry0Cv4FBEyFgxTx-147" value="AIContracts Registry" style="rounded=1;whiteSpace=wrap;html=1;" vertex="1" parent="1">
          <mxGeometry x="3228" y="838.5" width="120" height="60" as="geometry" />
        </mxCell>
        <mxCell id="fFqnCry0Cv4FBEyFgxTx-148" style="edgeStyle=orthogonalEdgeStyle;rounded=0;orthogonalLoop=1;jettySize=auto;html=1;entryX=0.497;entryY=0.937;entryDx=0;entryDy=0;entryPerimeter=0;" edge="1" parent="1" source="fFqnCry0Cv4FBEyFgxTx-143" target="fFqnCry0Cv4FBEyFgxTx-140">
          <mxGeometry relative="1" as="geometry" />
        </mxCell>
        <mxCell id="fFqnCry0Cv4FBEyFgxTx-150" value="Heartbeat TX" style="rounded=0;whiteSpace=wrap;html=1;" vertex="1" parent="1">
          <mxGeometry x="1384" y="506" width="114" height="37" as="geometry" />
        </mxCell>
        <mxCell id="fFqnCry0Cv4FBEyFgxTx-151" value="Heartbeat TX" style="rounded=0;whiteSpace=wrap;html=1;" vertex="1" parent="1">
          <mxGeometry x="1384" y="696" width="114" height="37" as="geometry" />
        </mxCell>
        <mxCell id="fFqnCry0Cv4FBEyFgxTx-152" value="Modal Update (weights)&lt;br&gt;Data" style="text;html=1;align=center;verticalAlign=middle;whiteSpace=wrap;rounded=0;" vertex="1" parent="1">
          <mxGeometry x="1180" y="543" width="82" height="23" as="geometry" />
        </mxCell>
        <mxCell id="fFqnCry0Cv4FBEyFgxTx-153" value="" style="edgeStyle=orthogonalEdgeStyle;rounded=0;orthogonalLoop=1;jettySize=auto;html=1;" edge="1" parent="1" source="fFqnCry0Cv4FBEyFgxTx-154" target="fFqnCry0Cv4FBEyFgxTx-74">
          <mxGeometry relative="1" as="geometry">
            <Array as="points">
              <mxPoint x="1543" y="836" />
            </Array>
          </mxGeometry>
        </mxCell>
        <mxCell id="fFqnCry0Cv4FBEyFgxTx-154" value="Data Resubmission" style="rounded=0;whiteSpace=wrap;html=1;" vertex="1" parent="1">
          <mxGeometry x="1483" y="918" width="114" height="37" as="geometry" />
        </mxCell>
        <mxCell id="fFqnCry0Cv4FBEyFgxTx-155" value="new_block event" style="text;html=1;align=center;verticalAlign=middle;whiteSpace=wrap;rounded=0;strokeColor=default;" vertex="1" parent="1">
          <mxGeometry x="1794.5" y="925" width="205" height="23" as="geometry" />
        </mxCell>
        <mxCell id="fFqnCry0Cv4FBEyFgxTx-156" value="" style="edgeStyle=orthogonalEdgeStyle;rounded=0;orthogonalLoop=1;jettySize=auto;html=1;" edge="1" parent="1" source="fFqnCry0Cv4FBEyFgxTx-157" target="fFqnCry0Cv4FBEyFgxTx-154">
          <mxGeometry relative="1" as="geometry" />
        </mxCell>
        <mxCell id="fFqnCry0Cv4FBEyFgxTx-157" value="Websocket listner" style="rounded=0;whiteSpace=wrap;html=1;" vertex="1" parent="1">
          <mxGeometry x="1622" y="918" width="114" height="37" as="geometry" />
        </mxCell>
        <mxCell id="fFqnCry0Cv4FBEyFgxTx-158" value="on_newblock" style="text;html=1;align=center;verticalAlign=middle;whiteSpace=wrap;rounded=0;" vertex="1" parent="1">
          <mxGeometry x="1553" y="870" width="60" height="23" as="geometry" />
        </mxCell>
        <mxCell id="fFqnCry0Cv4FBEyFgxTx-159" style="edgeStyle=orthogonalEdgeStyle;rounded=0;orthogonalLoop=1;jettySize=auto;html=1;" edge="1" parent="1" source="fFqnCry0Cv4FBEyFgxTx-163" target="fFqnCry0Cv4FBEyFgxTx-163">
          <mxGeometry relative="1" as="geometry" />
        </mxCell>
        <mxCell id="fFqnCry0Cv4FBEyFgxTx-160" value="Include Transaction in the processing block" style="text;html=1;align=center;verticalAlign=middle;whiteSpace=wrap;rounded=0;" vertex="1" parent="1">
          <mxGeometry x="2662" y="393" width="128" height="30" as="geometry" />
        </mxCell>
        <mxCell id="fFqnCry0Cv4FBEyFgxTx-161" value="" style="edgeStyle=orthogonalEdgeStyle;rounded=0;orthogonalLoop=1;jettySize=auto;html=1;" edge="1" parent="1" source="fFqnCry0Cv4FBEyFgxTx-117" target="fFqnCry0Cv4FBEyFgxTx-163">
          <mxGeometry relative="1" as="geometry">
            <mxPoint x="2633" y="466" as="sourcePoint" />
            <mxPoint x="2726" y="599" as="targetPoint" />
          </mxGeometry>
        </mxCell>
        <mxCell id="fFqnCry0Cv4FBEyFgxTx-162" value="" style="edgeStyle=orthogonalEdgeStyle;rounded=0;orthogonalLoop=1;jettySize=auto;html=1;" edge="1" parent="1" source="fFqnCry0Cv4FBEyFgxTx-163" target="fFqnCry0Cv4FBEyFgxTx-117">
          <mxGeometry relative="1" as="geometry" />
        </mxCell>
        <mxCell id="fFqnCry0Cv4FBEyFgxTx-163" value="Initiate Oracle reward&lt;br&gt;TX" style="whiteSpace=wrap;html=1;" vertex="1" parent="1">
          <mxGeometry x="2666" y="435.5" width="120" height="60" as="geometry" />
        </mxCell>
        <mxCell id="fFqnCry0Cv4FBEyFgxTx-164" style="edgeStyle=orthogonalEdgeStyle;rounded=0;orthogonalLoop=1;jettySize=auto;html=1;entryX=1;entryY=0.5;entryDx=0;entryDy=0;" edge="1" parent="1" source="fFqnCry0Cv4FBEyFgxTx-165" target="fFqnCry0Cv4FBEyFgxTx-123">
          <mxGeometry relative="1" as="geometry">
            <Array as="points">
              <mxPoint x="3256" y="545" />
            </Array>
          </mxGeometry>
        </mxCell>
        <mxCell id="fFqnCry0Cv4FBEyFgxTx-165" value="Confirmed Oracle reward&lt;br&gt;TX&lt;br&gt;&amp;amp; State settlement" style="whiteSpace=wrap;html=1;" vertex="1" parent="1">
          <mxGeometry x="3196" y="616" width="120" height="60" as="geometry" />
        </mxCell>
        <mxCell id="fFqnCry0Cv4FBEyFgxTx-166" style="edgeStyle=orthogonalEdgeStyle;rounded=0;orthogonalLoop=1;jettySize=auto;html=1;entryX=1.007;entryY=0.587;entryDx=0;entryDy=0;entryPerimeter=0;" edge="1" parent="1" source="fFqnCry0Cv4FBEyFgxTx-165" target="fFqnCry0Cv4FBEyFgxTx-140">
          <mxGeometry relative="1" as="geometry">
            <Array as="points">
              <mxPoint x="3256" y="748" />
            </Array>
          </mxGeometry>
        </mxCell>
        <mxCell id="fFqnCry0Cv4FBEyFgxTx-167" value="#Root hash" style="text;html=1;align=center;verticalAlign=middle;whiteSpace=wrap;rounded=0;" vertex="1" parent="1">
          <mxGeometry x="3012" y="580" width="80" height="30" as="geometry" />
        </mxCell>
        <mxCell id="fFqnCry0Cv4FBEyFgxTx-168" value="Proccess Merkle root" style="rounded=0;whiteSpace=wrap;html=1;" vertex="1" parent="1">
          <mxGeometry x="3199" y="527" width="114" height="37" as="geometry" />
        </mxCell>
        <mxCell id="fFqnCry0Cv4FBEyFgxTx-169" value="Proccess Merkle root" style="rounded=0;whiteSpace=wrap;html=1;" vertex="1" parent="1">
          <mxGeometry x="3199" y="729" width="114" height="37" as="geometry" />
        </mxCell>
        <mxCell id="fFqnCry0Cv4FBEyFgxTx-170" value="#Root hash" style="text;html=1;align=center;verticalAlign=middle;whiteSpace=wrap;rounded=0;" vertex="1" parent="1">
          <mxGeometry x="3012" y="683" width="80" height="30" as="geometry" />
        </mxCell>
        <mxCell id="fFqnCry0Cv4FBEyFgxTx-171" style="edgeStyle=orthogonalEdgeStyle;rounded=0;orthogonalLoop=1;jettySize=auto;html=1;entryX=1.035;entryY=0.707;entryDx=0;entryDy=0;entryPerimeter=0;" edge="1" parent="1" source="fFqnCry0Cv4FBEyFgxTx-190" target="fFqnCry0Cv4FBEyFgxTx-113">
          <mxGeometry relative="1" as="geometry" />
        </mxCell>
        <mxCell id="fFqnCry0Cv4FBEyFgxTx-172" style="edgeStyle=orthogonalEdgeStyle;rounded=0;orthogonalLoop=1;jettySize=auto;html=1;entryX=0.999;entryY=0.708;entryDx=0;entryDy=0;entryPerimeter=0;" edge="1" parent="1" source="fFqnCry0Cv4FBEyFgxTx-133" target="fFqnCry0Cv4FBEyFgxTx-113">
          <mxGeometry relative="1" as="geometry">
            <Array as="points">
              <mxPoint x="2726" y="743" />
            </Array>
          </mxGeometry>
        </mxCell>
        <mxCell id="fFqnCry0Cv4FBEyFgxTx-173" style="edgeStyle=orthogonalEdgeStyle;rounded=0;orthogonalLoop=1;jettySize=auto;html=1;entryX=-0.032;entryY=0.202;entryDx=0;entryDy=0;entryPerimeter=0;" edge="1" parent="1" source="fFqnCry0Cv4FBEyFgxTx-150" target="fFqnCry0Cv4FBEyFgxTx-113">
          <mxGeometry relative="1" as="geometry" />
        </mxCell>
        <mxCell id="fFqnCry0Cv4FBEyFgxTx-174" style="edgeStyle=orthogonalEdgeStyle;rounded=0;orthogonalLoop=1;jettySize=auto;html=1;entryX=0.045;entryY=0.642;entryDx=0;entryDy=0;entryPerimeter=0;" edge="1" parent="1" source="fFqnCry0Cv4FBEyFgxTx-151" target="fFqnCry0Cv4FBEyFgxTx-113">
          <mxGeometry relative="1" as="geometry" />
        </mxCell>
        <mxCell id="fFqnCry0Cv4FBEyFgxTx-175" value="" style="edgeStyle=orthogonalEdgeStyle;rounded=0;orthogonalLoop=1;jettySize=auto;html=1;" edge="1" parent="1" source="fFqnCry0Cv4FBEyFgxTx-176" target="fFqnCry0Cv4FBEyFgxTx-63">
          <mxGeometry relative="1" as="geometry" />
        </mxCell>
        <mxCell id="fFqnCry0Cv4FBEyFgxTx-176" value="" style="strokeColor=#dddddd;shadow=1;strokeWidth=1;rounded=1;absoluteArcSize=1;arcSize=2;" vertex="1" parent="1">
          <mxGeometry x="1341" y="616" width="200" height="60" as="geometry" />
        </mxCell>
        <mxCell id="fFqnCry0Cv4FBEyFgxTx-177" value="&lt;font color=&quot;#000000&quot;&gt;Tendermint BFT Engine&lt;/font&gt;" style="editableCssRules=.*;html=1;fontColor=#999999;shape=image;verticalLabelPosition=middle;verticalAlign=middle;labelPosition=right;align=left;spacingLeft=20;part=1;points=[];imageAspect=0;image=data:image/svg+xml,PHN2ZyB4bWxucz0iaHR0cDovL3d3dy53My5vcmcvMjAwMC9zdmciIHhtbG5zOnY9Imh0dHBzOi8vdmVjdGEuaW8vbmFubyIgd2lkdGg9IjIwIiBoZWlnaHQ9IjIwIiB2aWV3Qm94PSIwIDAgMjAgMjAiPiYjeGE7CTxzdHlsZSB0eXBlPSJ0ZXh0L2NzcyI+JiN4YTsJLnN0MHtmaWxsOiM0Mjg1ZjQ7fSYjeGE7CS5zdDF7ZmlsbDojNjY5ZGY2O30mI3hhOwkuc3Qye2ZpbGw6I2FlY2JmYTt9JiN4YTsJPC9zdHlsZT4mI3hhOwk8cGF0aCBjbGFzcz0ic3QyIiBkPSJNNyA3aDZ2Nkg3eiIvPiYjeGE7CTxwYXRoIGNsYXNzPSJzdDEiIGQ9Ik05IDBoMnY0SDl6TTUgMGgydjRINXptOCAwaDJ2NGgtMnoiLz4mI3hhOwk8cGF0aCBjbGFzcz0ic3QwIiBkPSJNOSAxNmgydjRIOXptLTQgMGgydjRINXptOCAwaDJ2NGgtMnptMy01VjloNHYyem0wIDR2LTJoNHYyem0wLThWNWg0djJ6Ii8+JiN4YTsJPHBhdGggY2xhc3M9InN0MSIgZD0iTTAgMTFWOWg0djJ6bTAgNHYtMmg0djJ6bTAtOFY1aDR2MnoiLz4mI3hhOwk8cGF0aCBjbGFzcz0ic3QyIiBkPSJNMyAzdjE0aDE0VjN6bTEyIDEySDVWNWgxMHoiLz4mI3hhOwk8cGF0aCBjbGFzcz0ic3QxIiBkPSJNMTAgMTBsLTMgM2g2eiIvPiYjeGE7CTxwYXRoIGNsYXNzPSJzdDAiIGQ9Ik0xMyA3bC0zIDMgMyAzeiIvPiYjeGE7PC9zdmc+;" vertex="1" parent="fFqnCry0Cv4FBEyFgxTx-176">
          <mxGeometry width="30" height="30" relative="1" as="geometry">
            <mxPoint x="15" y="15" as="offset" />
          </mxGeometry>
        </mxCell>
        <mxCell id="fFqnCry0Cv4FBEyFgxTx-178" value="" style="edgeStyle=orthogonalEdgeStyle;rounded=0;orthogonalLoop=1;jettySize=auto;html=1;" edge="1" parent="1" source="fFqnCry0Cv4FBEyFgxTx-77" target="fFqnCry0Cv4FBEyFgxTx-179">
          <mxGeometry relative="1" as="geometry">
            <mxPoint x="1318" y="836" as="sourcePoint" />
            <mxPoint x="1555" y="836" as="targetPoint" />
          </mxGeometry>
        </mxCell>
        <mxCell id="fFqnCry0Cv4FBEyFgxTx-179" value="" style="strokeColor=#dddddd;shadow=1;strokeWidth=1;rounded=1;absoluteArcSize=1;arcSize=2;" vertex="1" parent="1">
          <mxGeometry x="1336" y="806" width="200" height="60" as="geometry" />
        </mxCell>
        <mxCell id="fFqnCry0Cv4FBEyFgxTx-180" value="&lt;font color=&quot;#000000&quot;&gt;Tendermint BFT Engine&lt;/font&gt;" style="editableCssRules=.*;html=1;fontColor=#999999;shape=image;verticalLabelPosition=middle;verticalAlign=middle;labelPosition=right;align=left;spacingLeft=20;part=1;points=[];imageAspect=0;image=data:image/svg+xml,PHN2ZyB4bWxucz0iaHR0cDovL3d3dy53My5vcmcvMjAwMC9zdmciIHhtbG5zOnY9Imh0dHBzOi8vdmVjdGEuaW8vbmFubyIgd2lkdGg9IjIwIiBoZWlnaHQ9IjIwIiB2aWV3Qm94PSIwIDAgMjAgMjAiPiYjeGE7CTxzdHlsZSB0eXBlPSJ0ZXh0L2NzcyI+JiN4YTsJLnN0MHtmaWxsOiM0Mjg1ZjQ7fSYjeGE7CS5zdDF7ZmlsbDojNjY5ZGY2O30mI3hhOwkuc3Qye2ZpbGw6I2FlY2JmYTt9JiN4YTsJPC9zdHlsZT4mI3hhOwk8cGF0aCBjbGFzcz0ic3QyIiBkPSJNNyA3aDZ2Nkg3eiIvPiYjeGE7CTxwYXRoIGNsYXNzPSJzdDEiIGQ9Ik05IDBoMnY0SDl6TTUgMGgydjRINXptOCAwaDJ2NGgtMnoiLz4mI3hhOwk8cGF0aCBjbGFzcz0ic3QwIiBkPSJNOSAxNmgydjRIOXptLTQgMGgydjRINXptOCAwaDJ2NGgtMnptMy01VjloNHYyem0wIDR2LTJoNHYyem0wLThWNWg0djJ6Ii8+JiN4YTsJPHBhdGggY2xhc3M9InN0MSIgZD0iTTAgMTFWOWg0djJ6bTAgNHYtMmg0djJ6bTAtOFY1aDR2MnoiLz4mI3hhOwk8cGF0aCBjbGFzcz0ic3QyIiBkPSJNMyAzdjE0aDE0VjN6bTEyIDEySDVWNWgxMHoiLz4mI3hhOwk8cGF0aCBjbGFzcz0ic3QxIiBkPSJNMTAgMTBsLTMgM2g2eiIvPiYjeGE7CTxwYXRoIGNsYXNzPSJzdDAiIGQ9Ik0xMyA3bC0zIDMgMyAzeiIvPiYjeGE7PC9zdmc+;" vertex="1" parent="fFqnCry0Cv4FBEyFgxTx-179">
          <mxGeometry width="30" height="30" relative="1" as="geometry">
            <mxPoint x="15" y="15" as="offset" />
          </mxGeometry>
        </mxCell>
        <mxCell id="fFqnCry0Cv4FBEyFgxTx-181" value="" style="edgeStyle=orthogonalEdgeStyle;rounded=0;orthogonalLoop=1;jettySize=auto;html=1;" edge="1" parent="1" source="fFqnCry0Cv4FBEyFgxTx-72" target="fFqnCry0Cv4FBEyFgxTx-182">
          <mxGeometry relative="1" as="geometry">
            <mxPoint x="1318" y="453" as="sourcePoint" />
            <mxPoint x="1619" y="453" as="targetPoint" />
          </mxGeometry>
        </mxCell>
        <mxCell id="fFqnCry0Cv4FBEyFgxTx-182" value="" style="strokeColor=#dddddd;shadow=1;strokeWidth=1;rounded=1;absoluteArcSize=1;arcSize=2;" vertex="1" parent="1">
          <mxGeometry x="1341" y="423" width="200" height="60" as="geometry" />
        </mxCell>
        <mxCell id="fFqnCry0Cv4FBEyFgxTx-183" value="&lt;font color=&quot;#000000&quot;&gt;Tendermint BFT Engine&lt;/font&gt;" style="editableCssRules=.*;html=1;fontColor=#999999;shape=image;verticalLabelPosition=middle;verticalAlign=middle;labelPosition=right;align=left;spacingLeft=20;part=1;points=[];imageAspect=0;image=data:image/svg+xml,PHN2ZyB4bWxucz0iaHR0cDovL3d3dy53My5vcmcvMjAwMC9zdmciIHhtbG5zOnY9Imh0dHBzOi8vdmVjdGEuaW8vbmFubyIgd2lkdGg9IjIwIiBoZWlnaHQ9IjIwIiB2aWV3Qm94PSIwIDAgMjAgMjAiPiYjeGE7CTxzdHlsZSB0eXBlPSJ0ZXh0L2NzcyI+JiN4YTsJLnN0MHtmaWxsOiM0Mjg1ZjQ7fSYjeGE7CS5zdDF7ZmlsbDojNjY5ZGY2O30mI3hhOwkuc3Qye2ZpbGw6I2FlY2JmYTt9JiN4YTsJPC9zdHlsZT4mI3hhOwk8cGF0aCBjbGFzcz0ic3QyIiBkPSJNNyA3aDZ2Nkg3eiIvPiYjeGE7CTxwYXRoIGNsYXNzPSJzdDEiIGQ9Ik05IDBoMnY0SDl6TTUgMGgydjRINXptOCAwaDJ2NGgtMnoiLz4mI3hhOwk8cGF0aCBjbGFzcz0ic3QwIiBkPSJNOSAxNmgydjRIOXptLTQgMGgydjRINXptOCAwaDJ2NGgtMnptMy01VjloNHYyem0wIDR2LTJoNHYyem0wLThWNWg0djJ6Ii8+JiN4YTsJPHBhdGggY2xhc3M9InN0MSIgZD0iTTAgMTFWOWg0djJ6bTAgNHYtMmg0djJ6bTAtOFY1aDR2MnoiLz4mI3hhOwk8cGF0aCBjbGFzcz0ic3QyIiBkPSJNMyAzdjE0aDE0VjN6bTEyIDEySDVWNWgxMHoiLz4mI3hhOwk8cGF0aCBjbGFzcz0ic3QxIiBkPSJNMTAgMTBsLTMgM2g2eiIvPiYjeGE7CTxwYXRoIGNsYXNzPSJzdDAiIGQ9Ik0xMyA3bC0zIDMgMyAzeiIvPiYjeGE7PC9zdmc+;" vertex="1" parent="fFqnCry0Cv4FBEyFgxTx-182">
          <mxGeometry width="30" height="30" relative="1" as="geometry">
            <mxPoint x="15" y="15" as="offset" />
          </mxGeometry>
        </mxCell>
        <mxCell id="fFqnCry0Cv4FBEyFgxTx-184" style="edgeStyle=orthogonalEdgeStyle;rounded=0;orthogonalLoop=1;jettySize=auto;html=1;" edge="1" parent="1" source="fFqnCry0Cv4FBEyFgxTx-185">
          <mxGeometry relative="1" as="geometry">
            <mxPoint x="2381" y="653" as="targetPoint" />
          </mxGeometry>
        </mxCell>
        <mxCell id="fFqnCry0Cv4FBEyFgxTx-185" value="" style="strokeColor=#dddddd;shadow=1;strokeWidth=1;rounded=1;absoluteArcSize=1;arcSize=2;" vertex="1" parent="1">
          <mxGeometry x="2161" y="623" width="200" height="60" as="geometry" />
        </mxCell>
        <mxCell id="fFqnCry0Cv4FBEyFgxTx-186" value="&lt;font color=&quot;#000000&quot;&gt;Oracle DHT &amp;amp; ZK Proof&amp;nbsp;&lt;br&gt;Subnet Consensus&lt;/font&gt;" style="editableCssRules=.*;html=1;fontColor=#999999;shape=image;verticalLabelPosition=middle;verticalAlign=middle;labelPosition=right;align=left;spacingLeft=20;part=1;points=[];imageAspect=0;image=data:image/svg+xml,PHN2ZyB4bWxucz0iaHR0cDovL3d3dy53My5vcmcvMjAwMC9zdmciIHhtbG5zOnY9Imh0dHBzOi8vdmVjdGEuaW8vbmFubyIgd2lkdGg9IjMyOS45MjU5OTcyMzE3OTM4IiBoZWlnaHQ9IjM3OC4yODQ5OTAzMTEyNzg4IiB2aWV3Qm94PSIwIDAgODcuMjkyOTk5MjY3NTc4MTIgMTAwLjA4Nzk5NzQzNjUyMzQ0Ij4mI3hhOzxzdHlsZSB0eXBlPSJ0ZXh0L2NzcyI+JiN4YTsJLnN0MHtmaWxsOiNhZWNiZmE7fSYjeGE7CS5zdDF7ZmlsbDojNjY5ZGY2O30mI3hhOwkuc3Qye2ZpbGw6IzQyODVmNDt9JiN4YTs8L3N0eWxlPiYjeGE7CTxwYXRoIGNsYXNzPSJzdDAiIGQ9Ik00My43NTEgMEwwIDI1LjQ2NXYyLjU4OCA0Ni45Mmw0My43NTIgMjUuMTE1IDQzLjU0MS0yNS4xMjFWMjUuNDczem0yLjQzOCAxMS44NTNsMzIuMTAzIDE4Ljc4MlY2OS43N0w0My43MzkgODkuNzA1IDkgNjkuNzYyVjMwLjY0MWwzMi4xOS0xOC43MzZ2MTQuMTU0TDI0LjUwMyAzNi4xNTNsMTkuMTcyIDExLjUwMiAxOC44ODYtMTEuNTU0LTE2LjM3Mi0xMC4wMjR6Ii8+JiN4YTsJPHBhdGggY2xhc3M9InN0MSIgZD0iTTIyLjAyNSA0MC40OTZsLjE2NiAxOS4xNDMtMTMuMjQ3IDcuMzN2Mi43NDJsMi42MzcgMS41MTQgMTIuNjQ4LTYuOTk5IDE2Ljk2MSAxMC42MDJWNTEuOTkzeiIvPiYjeGE7CTxwYXRoIGNsYXNzPSJzdDIiIGQ9Ik02NS4zNDQgNDAuMjZMNDYuMTg5IDUxLjk3OXYyMi44NDdsMTYuODk5LTEwLjU3NiAxMi41MzkgNi45NzQgMi42MDktMS41MDV2LTIuNzY1bC0xMi43ODQtNy4xMTJ6Ii8+JiN4YTs8L3N2Zz4=;" vertex="1" parent="fFqnCry0Cv4FBEyFgxTx-185">
          <mxGeometry width="26" height="30" relative="1" as="geometry">
            <mxPoint x="17" y="15" as="offset" />
          </mxGeometry>
        </mxCell>
        <mxCell id="fFqnCry0Cv4FBEyFgxTx-187" style="edgeStyle=orthogonalEdgeStyle;rounded=0;orthogonalLoop=1;jettySize=auto;html=1;" edge="1" parent="1" source="fFqnCry0Cv4FBEyFgxTx-188">
          <mxGeometry relative="1" as="geometry">
            <mxPoint x="2495.7947899070946" y="537.4999999999999" as="targetPoint" />
          </mxGeometry>
        </mxCell>
        <mxCell id="fFqnCry0Cv4FBEyFgxTx-188" value="Merkle Patricia Trie" style="sketch=0;outlineConnect=0;fontColor=#232F3E;gradientColor=none;fillColor=#1C1E6B;strokeColor=none;dashed=0;verticalLabelPosition=bottom;verticalAlign=top;align=center;html=1;fontSize=12;fontStyle=0;aspect=fixed;pointerEvents=1;shape=mxgraph.aws4.rds_multi_az_db_cluster;" vertex="1" parent="1">
          <mxGeometry x="2882.5" y="509" width="57" height="57" as="geometry" />
        </mxCell>
        <mxCell id="fFqnCry0Cv4FBEyFgxTx-189" style="edgeStyle=orthogonalEdgeStyle;rounded=0;orthogonalLoop=1;jettySize=auto;html=1;entryX=0;entryY=0.5;entryDx=0;entryDy=0;" edge="1" parent="1" source="fFqnCry0Cv4FBEyFgxTx-190" target="fFqnCry0Cv4FBEyFgxTx-140">
          <mxGeometry relative="1" as="geometry" />
        </mxCell>
        <mxCell id="fFqnCry0Cv4FBEyFgxTx-190" value="Merkle Patricia Trie" style="sketch=0;outlineConnect=0;fontColor=#232F3E;gradientColor=none;fillColor=#1C1E6B;strokeColor=none;dashed=0;verticalLabelPosition=bottom;verticalAlign=top;align=center;html=1;fontSize=12;fontStyle=0;aspect=fixed;pointerEvents=1;shape=mxgraph.aws4.rds_multi_az_db_cluster;" vertex="1" parent="1">
          <mxGeometry x="2877.5" y="714.5" width="57" height="57" as="geometry" />
        </mxCell>
        <mxCell id="fFqnCry0Cv4FBEyFgxTx-191" style="edgeStyle=orthogonalEdgeStyle;rounded=0;orthogonalLoop=1;jettySize=auto;html=1;entryX=-0.001;entryY=0.363;entryDx=0;entryDy=0;entryPerimeter=0;" edge="1" parent="1" source="fFqnCry0Cv4FBEyFgxTx-188" target="fFqnCry0Cv4FBEyFgxTx-123">
          <mxGeometry relative="1" as="geometry" />
        </mxCell>
        <mxCell id="fFqnCry0Cv4FBEyFgxTx-192" value="Node" style="sketch=0;pointerEvents=1;shadow=0;dashed=0;html=1;strokeColor=none;labelPosition=center;verticalLabelPosition=bottom;verticalAlign=top;outlineConnect=0;align=center;shape=mxgraph.office.concepts.node_generic;fillColor=#2072B8;" vertex="1" parent="1">
          <mxGeometry x="2403" y="893" width="76" height="82" as="geometry" />
        </mxCell>
        <mxCell id="fFqnCry0Cv4FBEyFgxTx-193" value="" style="edgeStyle=orthogonalEdgeStyle;rounded=0;orthogonalLoop=1;jettySize=auto;html=1;" edge="1" parent="1" source="fFqnCry0Cv4FBEyFgxTx-194" target="fFqnCry0Cv4FBEyFgxTx-113">
          <mxGeometry relative="1" as="geometry" />
        </mxCell>
        <mxCell id="fFqnCry0Cv4FBEyFgxTx-194" value="Bootnode" style="editableCssRules=.*;html=1;shape=image;verticalLabelPosition=bottom;labelBackgroundColor=#ffffff;verticalAlign=top;aspect=fixed;imageAspect=0;image=data:image/svg+xml,PHN2ZyB4bWxucz0iaHR0cDovL3d3dy53My5vcmcvMjAwMC9zdmciIHhtbG5zOnY9Imh0dHBzOi8vdmVjdGEuaW8vbmFubyIgd2lkdGg9IjM3Ny4xNTkzMDIxNjAyNjMwNSIgaGVpZ2h0PSIzMzYuMTYyNDk5MDAzMzEwOCIgdmlld0JveD0iLTAuMDU4MDAwMDA1NzgxNjUwNTQgMC4xMTI5OTk5OTgwMzMwNDY3MiA5OS43OTAwMDA5MTU1MjczNCA4OC45NDMwMDA3OTM0NTcwMyI+JiN4YTs8c3R5bGUgdHlwZT0idGV4dC9jc3MiPiYjeGE7CS5zdDB7ZmlsbDojNjY5ZGY2O30mI3hhOwkuc3Qxe2ZpbGw6I2FlY2JmYTt9JiN4YTsJLnN0MntmaWxsOiM0Mjg1ZjQ7fSYjeGE7PC9zdHlsZT4mI3hhOwk8cGF0aCBjbGFzcz0ic3QwIiBkPSJNNTMuMjQzIDYyLjA5VjQ3LjA5NGwxMy4yMDEgOC40MTZ2MTUuMDM4em0tMzMuMDIxIDBWNDcuMDk0bDEzLjIwMSA4LjQxNnYxNS4wMzh6bTE2LjUxMS0zMi4yODVWMTQuODFsMTMuMjAxIDguNDE2djE1LjAzOHptNjIuOTk5IDMzLjk2VjI1LjQwM2wtOS41NjItMS44ODR2NDIuMTMxem0tOTkuNzg4IDBWMjUuNDAzbDkuNTYyLTEuODg0djQyLjEzMXoiLz4mI3hhOwk8cGF0aCBjbGFzcz0ic3QxIiBkPSJNNTMuMTg1IDQ3LjA5NGwxMy4yNTgtOC4yODcgMTMuMDE2IDguMjM0LTEzLjAxNiA4LjQ2OXptLTMzLjAyMSAwbDEzLjI1OC04LjI4NyAxMy4wMTYgOC4yMzQtMTMuMDE2IDguNDY5ek0zNi42NzUgMTQuODFsMTMuMjU4LTguMjg3IDEzLjAxNiA4LjIzNC0xMy4wMTYgOC40Njl6bTYzLjA1NiA0OC45NTZ2MTIuMjE3TDc3LjAxIDg5LjA1NVY3Ny43NTJ6bTAtMzguMzYzVjEzLjE4Nkw3Ny4wMS4xMTN2MTEuMzAzek0tLjA1OCA2My43NjZ2MTIuMjE3bDIyLjcyMSAxMy4wNzNWNzcuNzUyem0wLTM4LjM2M1YxMy4xODZMMjIuNjYzLjExM3YxMS4zMDN6Ii8+JiN4YTsJPHBhdGggY2xhc3M9InN0MiIgZD0iTTY2LjQ0NCA3MC41NDdWNTUuNTFsMTMuMDE2LTguNDY5djE1LjR6bS0zMy4wMjEgMFY1NS41MWwxMy4wMTYtOC40Njl2MTUuNHptMTYuNTExLTMyLjI4NVYyMy4yMjVsMTMuMDE2LTguNDY5djE1LjR6bTQ5Ljc5OCAyNS41MDNsLTkuNTYyIDUuODh2LTMuOTk2em0wLTM4LjM2M2wtOS41NjItNS44OHYzLjk5NnpNLS4wNTggNjMuNzY2bDkuNTYyIDUuODh2LTMuOTk2em0wLTM4LjM2M2w5LjU2Mi01Ljg4djMuOTk2eiIvPiYjeGE7PC9zdmc+;" vertex="1" parent="1">
          <mxGeometry x="2401" y="311" width="80" height="72" as="geometry" />
        </mxCell>
        <mxCell id="fFqnCry0Cv4FBEyFgxTx-195" value="" style="edgeStyle=orthogonalEdgeStyle;rounded=0;orthogonalLoop=1;jettySize=auto;html=1;" edge="1" parent="1" source="fFqnCry0Cv4FBEyFgxTx-196" target="fFqnCry0Cv4FBEyFgxTx-194">
          <mxGeometry relative="1" as="geometry" />
        </mxCell>
        <mxCell id="fFqnCry0Cv4FBEyFgxTx-196" value="Node Y" style="sketch=0;pointerEvents=1;shadow=0;dashed=0;html=1;strokeColor=none;labelPosition=center;verticalLabelPosition=bottom;verticalAlign=top;outlineConnect=0;align=center;shape=mxgraph.office.concepts.node_generic;fillColor=#2072B8;" vertex="1" parent="1">
          <mxGeometry x="2529" y="324.62" width="40" height="44.75" as="geometry" />
        </mxCell>
        <mxCell id="fFqnCry0Cv4FBEyFgxTx-197" value="" style="edgeStyle=orthogonalEdgeStyle;rounded=0;orthogonalLoop=1;jettySize=auto;html=1;" edge="1" parent="1" source="fFqnCry0Cv4FBEyFgxTx-200" target="fFqnCry0Cv4FBEyFgxTx-194">
          <mxGeometry relative="1" as="geometry" />
        </mxCell>
        <mxCell id="fFqnCry0Cv4FBEyFgxTx-198" style="edgeStyle=orthogonalEdgeStyle;rounded=0;orthogonalLoop=1;jettySize=auto;html=1;startArrow=classic;startFill=1;" edge="1" parent="1" source="fFqnCry0Cv4FBEyFgxTx-200" target="fFqnCry0Cv4FBEyFgxTx-196">
          <mxGeometry relative="1" as="geometry">
            <Array as="points">
              <mxPoint x="2329" y="220" />
              <mxPoint x="2549" y="220" />
            </Array>
          </mxGeometry>
        </mxCell>
        <mxCell id="fFqnCry0Cv4FBEyFgxTx-199" value="P2P" style="edgeLabel;html=1;align=center;verticalAlign=middle;resizable=0;points=[];" vertex="1" connectable="0" parent="fFqnCry0Cv4FBEyFgxTx-198">
          <mxGeometry x="0.0011" relative="1" as="geometry">
            <mxPoint as="offset" />
          </mxGeometry>
        </mxCell>
        <mxCell id="fFqnCry0Cv4FBEyFgxTx-200" value="Node X" style="sketch=0;pointerEvents=1;shadow=0;dashed=0;html=1;strokeColor=none;labelPosition=center;verticalLabelPosition=bottom;verticalAlign=top;outlineConnect=0;align=center;shape=mxgraph.office.concepts.node_generic;fillColor=#2072B8;" vertex="1" parent="1">
          <mxGeometry x="2309" y="324.62" width="40" height="44.75" as="geometry" />
        </mxCell>
        <mxCell id="fFqnCry0Cv4FBEyFgxTx-201" value="" style="edgeStyle=orthogonalEdgeStyle;rounded=0;orthogonalLoop=1;jettySize=auto;html=1;" edge="1" parent="1" source="fFqnCry0Cv4FBEyFgxTx-202" target="fFqnCry0Cv4FBEyFgxTx-194">
          <mxGeometry relative="1" as="geometry" />
        </mxCell>
        <mxCell id="fFqnCry0Cv4FBEyFgxTx-202" value="Kademlia" style="strokeColor=#dddddd;shadow=1;strokeWidth=1;rounded=1;absoluteArcSize=1;arcSize=2;" vertex="1" parent="1">
          <mxGeometry x="2376" y="250" width="130" height="40" as="geometry" />
        </mxCell>
        <mxCell id="fFqnCry0Cv4FBEyFgxTx-203" value="" style="group" vertex="1" connectable="0" parent="1">
          <mxGeometry x="1451" y="350" width="90" height="60" as="geometry" />
        </mxCell>
        <mxCell id="fFqnCry0Cv4FBEyFgxTx-204" value="" style="strokeColor=#dddddd;shadow=1;strokeWidth=1;rounded=1;absoluteArcSize=1;arcSize=2;" vertex="1" parent="fFqnCry0Cv4FBEyFgxTx-203">
          <mxGeometry width="90" height="60" as="geometry" />
        </mxCell>
        <mxCell id="fFqnCry0Cv4FBEyFgxTx-205" value="Oracle DHT" style="shadow=0;dashed=0;html=1;strokeColor=none;fillColor=#4495D1;labelPosition=center;verticalLabelPosition=bottom;verticalAlign=top;align=center;outlineConnect=0;shape=mxgraph.veeam.table;" vertex="1" parent="fFqnCry0Cv4FBEyFgxTx-203">
          <mxGeometry x="35" y="8" width="20" height="22" as="geometry" />
        </mxCell>
        <mxCell id="fFqnCry0Cv4FBEyFgxTx-206" value="" style="group" vertex="1" connectable="0" parent="1">
          <mxGeometry x="1451" y="550" width="90" height="60" as="geometry" />
        </mxCell>
        <mxCell id="fFqnCry0Cv4FBEyFgxTx-207" value="" style="strokeColor=#dddddd;shadow=1;strokeWidth=1;rounded=1;absoluteArcSize=1;arcSize=2;" vertex="1" parent="fFqnCry0Cv4FBEyFgxTx-206">
          <mxGeometry width="90" height="60" as="geometry" />
        </mxCell>
        <mxCell id="fFqnCry0Cv4FBEyFgxTx-208" value="Oracle DHT" style="shadow=0;dashed=0;html=1;strokeColor=none;fillColor=#4495D1;labelPosition=center;verticalLabelPosition=bottom;verticalAlign=top;align=center;outlineConnect=0;shape=mxgraph.veeam.table;" vertex="1" parent="fFqnCry0Cv4FBEyFgxTx-206">
          <mxGeometry x="35" y="8" width="20" height="22" as="geometry" />
        </mxCell>
        <mxCell id="fFqnCry0Cv4FBEyFgxTx-209" value="" style="group" vertex="1" connectable="0" parent="1">
          <mxGeometry x="1446" y="740" width="90" height="60" as="geometry" />
        </mxCell>
        <mxCell id="fFqnCry0Cv4FBEyFgxTx-210" value="" style="strokeColor=#dddddd;shadow=1;strokeWidth=1;rounded=1;absoluteArcSize=1;arcSize=2;" vertex="1" parent="fFqnCry0Cv4FBEyFgxTx-209">
          <mxGeometry width="90" height="60" as="geometry" />
        </mxCell>
        <mxCell id="fFqnCry0Cv4FBEyFgxTx-211" value="Oracle DHT" style="shadow=0;dashed=0;html=1;strokeColor=none;fillColor=#4495D1;labelPosition=center;verticalLabelPosition=bottom;verticalAlign=top;align=center;outlineConnect=0;shape=mxgraph.veeam.table;" vertex="1" parent="fFqnCry0Cv4FBEyFgxTx-209">
          <mxGeometry x="35" y="8" width="20" height="22" as="geometry" />
        </mxCell>
        <mxCell id="fFqnCry0Cv4FBEyFgxTx-212" style="edgeStyle=orthogonalEdgeStyle;rounded=0;orthogonalLoop=1;jettySize=auto;html=1;entryX=0.002;entryY=0.503;entryDx=0;entryDy=0;entryPerimeter=0;" edge="1" parent="1" source="fFqnCry0Cv4FBEyFgxTx-210" target="fFqnCry0Cv4FBEyFgxTx-74">
          <mxGeometry relative="1" as="geometry" />
        </mxCell>
        <mxCell id="fFqnCry0Cv4FBEyFgxTx-213" style="edgeStyle=orthogonalEdgeStyle;rounded=0;orthogonalLoop=1;jettySize=auto;html=1;entryX=0.008;entryY=0.499;entryDx=0;entryDy=0;entryPerimeter=0;" edge="1" parent="1" source="fFqnCry0Cv4FBEyFgxTx-204" target="fFqnCry0Cv4FBEyFgxTx-69">
          <mxGeometry relative="1" as="geometry" />
        </mxCell>
        <mxCell id="fFqnCry0Cv4FBEyFgxTx-214" style="edgeStyle=orthogonalEdgeStyle;rounded=0;orthogonalLoop=1;jettySize=auto;html=1;entryX=-0.017;entryY=0.497;entryDx=0;entryDy=0;entryPerimeter=0;" edge="1" parent="1" source="fFqnCry0Cv4FBEyFgxTx-207" target="fFqnCry0Cv4FBEyFgxTx-63">
          <mxGeometry relative="1" as="geometry" />
        </mxCell>
        <mxCell id="fFqnCry0Cv4FBEyFgxTx-215" value="Discovery/Data Transmisiion" style="text;html=1;align=center;verticalAlign=middle;whiteSpace=wrap;rounded=0;rotation=-90;" vertex="1" parent="1">
          <mxGeometry x="1101" y="641.5" width="90" height="23" as="geometry" />
        </mxCell>
        <mxCell id="fFqnCry0Cv4FBEyFgxTx-216" value="&#xa;&#xa;&#xa;Oracle Data Sync" style="strokeColor=#dddddd;shadow=1;strokeWidth=1;rounded=1;absoluteArcSize=1;arcSize=2;" vertex="1" parent="1">
          <mxGeometry x="2131" y="280" width="160" height="80" as="geometry" />
        </mxCell>
        <mxCell id="fFqnCry0Cv4FBEyFgxTx-217" style="edgeStyle=orthogonalEdgeStyle;rounded=0;orthogonalLoop=1;jettySize=auto;html=1;entryX=0.807;entryY=0.992;entryDx=0;entryDy=0;entryPerimeter=0;" edge="1" parent="1" source="fFqnCry0Cv4FBEyFgxTx-185" target="fFqnCry0Cv4FBEyFgxTx-216">
          <mxGeometry relative="1" as="geometry" />
        </mxCell>
        <mxCell id="fFqnCry0Cv4FBEyFgxTx-218" value="" style="sketch=0;pointerEvents=1;shadow=0;dashed=0;html=1;strokeColor=none;fillColor=#505050;labelPosition=center;verticalLabelPosition=bottom;verticalAlign=top;outlineConnect=0;align=center;shape=mxgraph.office.communications.exchange_active_sync;fillColor=#2072B8;" vertex="1" parent="1">
          <mxGeometry x="2192" y="290.62" width="38" height="34" as="geometry" />
        </mxCell>
        <mxCell id="fFqnCry0Cv4FBEyFgxTx-219" style="edgeStyle=orthogonalEdgeStyle;rounded=0;orthogonalLoop=1;jettySize=auto;html=1;entryX=0;entryY=0;entryDx=0;entryDy=30;entryPerimeter=0;" edge="1" parent="1" source="fFqnCry0Cv4FBEyFgxTx-216" target="fFqnCry0Cv4FBEyFgxTx-69">
          <mxGeometry relative="1" as="geometry">
            <Array as="points">
              <mxPoint x="1580" y="320" />
              <mxPoint x="1580" y="453" />
              <mxPoint x="1619" y="453" />
            </Array>
          </mxGeometry>
        </mxCell>
        <mxCell id="fFqnCry0Cv4FBEyFgxTx-220" value="In case of Oracle Proof validation Fails" style="text;html=1;align=center;verticalAlign=middle;whiteSpace=wrap;rounded=0;" vertex="1" parent="1">
          <mxGeometry x="1718" y="292.62" width="272" height="30" as="geometry" />
        </mxCell>
        <mxCell id="fFqnCry0Cv4FBEyFgxTx-222" value="" style="html=1;verticalLabelPosition=bottom;align=center;labelBackgroundColor=#ffffff;verticalAlign=top;strokeWidth=2;strokeColor=#0080F0;shadow=0;dashed=0;shape=mxgraph.ios7.icons.reload;" vertex="1" parent="1">
          <mxGeometry x="366" y="150" width="118" height="130" as="geometry" />
        </mxCell>
        <mxCell id="fFqnCry0Cv4FBEyFgxTx-224" value="Selected Global node" style="whiteSpace=wrap;html=1;aspect=fixed;" vertex="1" parent="1">
          <mxGeometry x="800" y="73" width="90" height="90" as="geometry" />
        </mxCell>
        <mxCell id="fFqnCry0Cv4FBEyFgxTx-267" value="" style="edgeStyle=orthogonalEdgeStyle;rounded=0;orthogonalLoop=1;jettySize=auto;html=1;" edge="1" parent="1" source="fFqnCry0Cv4FBEyFgxTx-231" target="fFqnCry0Cv4FBEyFgxTx-265">
          <mxGeometry relative="1" as="geometry" />
        </mxCell>
        <mxCell id="fFqnCry0Cv4FBEyFgxTx-231" value="Model evaluation &lt;br&gt;Epoch" style="html=1;verticalLabelPosition=bottom;align=center;labelBackgroundColor=#ffffff;verticalAlign=top;strokeWidth=2;strokeColor=#0080F0;shadow=0;dashed=0;shape=mxgraph.ios7.icons.repeat;pointerEvents=1" vertex="1" parent="1">
          <mxGeometry x="1040" y="621" width="68" height="50" as="geometry" />
        </mxCell>
        <mxCell id="fFqnCry0Cv4FBEyFgxTx-266" style="edgeStyle=orthogonalEdgeStyle;rounded=0;orthogonalLoop=1;jettySize=auto;html=1;" edge="1" parent="1" source="fFqnCry0Cv4FBEyFgxTx-233" target="fFqnCry0Cv4FBEyFgxTx-265">
          <mxGeometry relative="1" as="geometry" />
        </mxCell>
        <mxCell id="fFqnCry0Cv4FBEyFgxTx-233" value="Gobal Receiver Module" style="rounded=1;whiteSpace=wrap;html=1;" vertex="1" parent="1">
          <mxGeometry x="1071" y="443" width="150" height="30" as="geometry" />
        </mxCell>
        <mxCell id="fFqnCry0Cv4FBEyFgxTx-269" style="edgeStyle=orthogonalEdgeStyle;rounded=0;orthogonalLoop=1;jettySize=auto;html=1;entryX=0.5;entryY=1;entryDx=0;entryDy=0;" edge="1" parent="1" source="fFqnCry0Cv4FBEyFgxTx-234" target="fFqnCry0Cv4FBEyFgxTx-268">
          <mxGeometry relative="1" as="geometry" />
        </mxCell>
        <mxCell id="fFqnCry0Cv4FBEyFgxTx-234" value="Gobal Receiver Module" style="rounded=1;whiteSpace=wrap;html=1;" vertex="1" parent="1">
          <mxGeometry x="1071" y="830" width="150" height="30" as="geometry" />
        </mxCell>
        <mxCell id="fFqnCry0Cv4FBEyFgxTx-237" value="" style="edgeStyle=orthogonalEdgeStyle;rounded=0;orthogonalLoop=1;jettySize=auto;html=1;startArrow=classic;startFill=1;" edge="1" parent="1" source="fFqnCry0Cv4FBEyFgxTx-283">
          <mxGeometry relative="1" as="geometry">
            <mxPoint x="2441" y="1010" as="targetPoint" />
          </mxGeometry>
        </mxCell>
        <mxCell id="fFqnCry0Cv4FBEyFgxTx-255" style="edgeStyle=orthogonalEdgeStyle;rounded=0;orthogonalLoop=1;jettySize=auto;html=1;" edge="1" parent="1" source="fFqnCry0Cv4FBEyFgxTx-235" target="fFqnCry0Cv4FBEyFgxTx-242">
          <mxGeometry relative="1" as="geometry" />
        </mxCell>
        <mxCell id="fFqnCry0Cv4FBEyFgxTx-256" style="edgeStyle=orthogonalEdgeStyle;rounded=0;orthogonalLoop=1;jettySize=auto;html=1;" edge="1" parent="1" source="fFqnCry0Cv4FBEyFgxTx-235" target="fFqnCry0Cv4FBEyFgxTx-245">
          <mxGeometry relative="1" as="geometry" />
        </mxCell>
        <mxCell id="fFqnCry0Cv4FBEyFgxTx-235" value="AI ENGINE" style="rounded=0;whiteSpace=wrap;html=1;" vertex="1" parent="1">
          <mxGeometry x="2385" y="1230" width="110" height="200" as="geometry" />
        </mxCell>
        <mxCell id="fFqnCry0Cv4FBEyFgxTx-236" value="Associated model Global node" style="rounded=0;whiteSpace=wrap;html=1;" vertex="1" parent="1">
          <mxGeometry x="1535" y="1298" width="155" height="60" as="geometry" />
        </mxCell>
        <mxCell id="fFqnCry0Cv4FBEyFgxTx-271" value="" style="edgeStyle=orthogonalEdgeStyle;rounded=0;orthogonalLoop=1;jettySize=auto;html=1;" edge="1" parent="1" source="fFqnCry0Cv4FBEyFgxTx-238" target="fFqnCry0Cv4FBEyFgxTx-262">
          <mxGeometry relative="1" as="geometry" />
        </mxCell>
        <mxCell id="fFqnCry0Cv4FBEyFgxTx-238" value="External Data Sources" style="rounded=0;whiteSpace=wrap;html=1;" vertex="1" parent="1">
          <mxGeometry x="3036.5" y="1352" width="155" height="60" as="geometry" />
        </mxCell>
        <mxCell id="fFqnCry0Cv4FBEyFgxTx-250" style="edgeStyle=orthogonalEdgeStyle;rounded=0;orthogonalLoop=1;jettySize=auto;html=1;entryX=1;entryY=0.5;entryDx=0;entryDy=0;" edge="1" parent="1" source="fFqnCry0Cv4FBEyFgxTx-242" target="fFqnCry0Cv4FBEyFgxTx-249">
          <mxGeometry relative="1" as="geometry" />
        </mxCell>
        <mxCell id="fFqnCry0Cv4FBEyFgxTx-242" value="" style="strokeColor=#dddddd;shadow=1;strokeWidth=1;rounded=1;absoluteArcSize=1;arcSize=2;" vertex="1" parent="1">
          <mxGeometry x="2127" y="1232" width="164" height="56" as="geometry" />
        </mxCell>
        <mxCell id="fFqnCry0Cv4FBEyFgxTx-243" value="AI task load balancer" style="sketch=0;dashed=0;connectable=0;html=1;fillColor=#757575;strokeColor=none;shape=mxgraph.gcp2.network_load_balancer;part=1;labelPosition=right;verticalLabelPosition=middle;align=left;verticalAlign=middle;spacingLeft=5;fontSize=12;" vertex="1" parent="fFqnCry0Cv4FBEyFgxTx-242">
          <mxGeometry y="0.5" width="32" height="29.5" relative="1" as="geometry">
            <mxPoint x="5" y="-16" as="offset" />
          </mxGeometry>
        </mxCell>
        <mxCell id="fFqnCry0Cv4FBEyFgxTx-244" value="&lt;span style=&quot;color: rgb(32, 33, 36); font-family: Roboto, arial, sans-serif; font-size: 13px; font-style: normal; font-variant-ligatures: normal; font-variant-caps: normal; font-weight: 400; letter-spacing: normal; orphans: 2; text-align: left; text-indent: 0px; text-transform: none; widows: 2; word-spacing: 0px; -webkit-text-stroke-width: 0px; white-space: pre-wrap; background-color: rgb(255, 255, 255); text-decoration-thickness: initial; text-decoration-style: initial; text-decoration-color: initial; display: inline !important; float: none;&quot;&gt;Data Integration and Task Coordination&#xa;Blockchain Interaction and Smart Contract Management&#xa;Resource Allocation and Optimization&#xa;Data Caching&#xa;Incentive and Reputation Management&#xa;Autonomous Task Execution and Collaboration&lt;/span&gt;" style="text;whiteSpace=wrap;html=1;" vertex="1" parent="1">
          <mxGeometry x="1360" y="1780" width="360" height="120" as="geometry" />
        </mxCell>
        <mxCell id="fFqnCry0Cv4FBEyFgxTx-251" value="" style="edgeStyle=orthogonalEdgeStyle;rounded=0;orthogonalLoop=1;jettySize=auto;html=1;" edge="1" parent="1" source="fFqnCry0Cv4FBEyFgxTx-245" target="fFqnCry0Cv4FBEyFgxTx-249">
          <mxGeometry relative="1" as="geometry" />
        </mxCell>
        <mxCell id="fFqnCry0Cv4FBEyFgxTx-245" value="" style="strokeColor=#dddddd;shadow=1;strokeWidth=1;rounded=1;absoluteArcSize=1;arcSize=2;" vertex="1" parent="1">
          <mxGeometry x="2127" y="1300" width="164" height="56" as="geometry" />
        </mxCell>
        <mxCell id="fFqnCry0Cv4FBEyFgxTx-246" value="Resource Allocation" style="sketch=0;dashed=0;connectable=0;html=1;fillColor=#757575;strokeColor=none;shape=mxgraph.gcp2.network_load_balancer;part=1;labelPosition=right;verticalLabelPosition=middle;align=left;verticalAlign=middle;spacingLeft=5;fontSize=12;" vertex="1" parent="fFqnCry0Cv4FBEyFgxTx-245">
          <mxGeometry y="0.5" width="32" height="29.5" relative="1" as="geometry">
            <mxPoint x="5" y="-16" as="offset" />
          </mxGeometry>
        </mxCell>
        <mxCell id="fFqnCry0Cv4FBEyFgxTx-252" style="edgeStyle=orthogonalEdgeStyle;rounded=0;orthogonalLoop=1;jettySize=auto;html=1;entryX=1;entryY=0.5;entryDx=0;entryDy=0;" edge="1" parent="1" source="fFqnCry0Cv4FBEyFgxTx-247" target="fFqnCry0Cv4FBEyFgxTx-249">
          <mxGeometry relative="1" as="geometry" />
        </mxCell>
        <mxCell id="fFqnCry0Cv4FBEyFgxTx-247" value="" style="strokeColor=#dddddd;shadow=1;strokeWidth=1;rounded=1;absoluteArcSize=1;arcSize=2;" vertex="1" parent="1">
          <mxGeometry x="2127" y="1367" width="164" height="56" as="geometry" />
        </mxCell>
        <mxCell id="fFqnCry0Cv4FBEyFgxTx-248" value="Data Caching" style="sketch=0;dashed=0;connectable=0;html=1;fillColor=#757575;strokeColor=none;shape=mxgraph.gcp2.network_load_balancer;part=1;labelPosition=right;verticalLabelPosition=middle;align=left;verticalAlign=middle;spacingLeft=5;fontSize=12;" vertex="1" parent="fFqnCry0Cv4FBEyFgxTx-247">
          <mxGeometry y="0.5" width="32" height="29.5" relative="1" as="geometry">
            <mxPoint x="5" y="-16" as="offset" />
          </mxGeometry>
        </mxCell>
        <mxCell id="fFqnCry0Cv4FBEyFgxTx-259" value="" style="edgeStyle=orthogonalEdgeStyle;rounded=0;orthogonalLoop=1;jettySize=auto;html=1;" edge="1" parent="1" source="fFqnCry0Cv4FBEyFgxTx-249" target="fFqnCry0Cv4FBEyFgxTx-258">
          <mxGeometry relative="1" as="geometry" />
        </mxCell>
        <mxCell id="fFqnCry0Cv4FBEyFgxTx-291" style="edgeStyle=orthogonalEdgeStyle;rounded=0;orthogonalLoop=1;jettySize=auto;html=1;entryX=0;entryY=0.5;entryDx=0;entryDy=0;" edge="1" parent="1" source="fFqnCry0Cv4FBEyFgxTx-249" target="fFqnCry0Cv4FBEyFgxTx-290">
          <mxGeometry relative="1" as="geometry">
            <Array as="points">
              <mxPoint x="1980" y="1130" />
            </Array>
          </mxGeometry>
        </mxCell>
        <mxCell id="fFqnCry0Cv4FBEyFgxTx-249" value="Task execution" style="rounded=1;whiteSpace=wrap;html=1;" vertex="1" parent="1">
          <mxGeometry x="1924" y="1298" width="120" height="60" as="geometry" />
        </mxCell>
        <mxCell id="fFqnCry0Cv4FBEyFgxTx-282" value="" style="edgeStyle=orthogonalEdgeStyle;rounded=0;orthogonalLoop=1;jettySize=auto;html=1;" edge="1" parent="1" target="fFqnCry0Cv4FBEyFgxTx-235">
          <mxGeometry relative="1" as="geometry">
            <mxPoint x="2440" y="1490" as="sourcePoint" />
          </mxGeometry>
        </mxCell>
        <mxCell id="fFqnCry0Cv4FBEyFgxTx-257" style="edgeStyle=orthogonalEdgeStyle;rounded=0;orthogonalLoop=1;jettySize=auto;html=1;entryX=0.965;entryY=0.509;entryDx=0;entryDy=0;entryPerimeter=0;" edge="1" parent="1" source="fFqnCry0Cv4FBEyFgxTx-235" target="fFqnCry0Cv4FBEyFgxTx-247">
          <mxGeometry relative="1" as="geometry" />
        </mxCell>
        <mxCell id="fFqnCry0Cv4FBEyFgxTx-260" value="" style="edgeStyle=orthogonalEdgeStyle;rounded=0;orthogonalLoop=1;jettySize=auto;html=1;" edge="1" parent="1" source="fFqnCry0Cv4FBEyFgxTx-258" target="fFqnCry0Cv4FBEyFgxTx-236">
          <mxGeometry relative="1" as="geometry" />
        </mxCell>
        <mxCell id="fFqnCry0Cv4FBEyFgxTx-258" value="Model Node Indexer" style="rounded=0;whiteSpace=wrap;html=1;" vertex="1" parent="1">
          <mxGeometry x="1717" y="1298" width="155" height="60" as="geometry" />
        </mxCell>
        <mxCell id="fFqnCry0Cv4FBEyFgxTx-264" style="edgeStyle=orthogonalEdgeStyle;rounded=0;orthogonalLoop=1;jettySize=auto;html=1;entryX=0.5;entryY=1;entryDx=0;entryDy=0;" edge="1" parent="1" source="fFqnCry0Cv4FBEyFgxTx-262" target="fFqnCry0Cv4FBEyFgxTx-147">
          <mxGeometry relative="1" as="geometry" />
        </mxCell>
        <mxCell id="fFqnCry0Cv4FBEyFgxTx-280" style="edgeStyle=orthogonalEdgeStyle;rounded=0;orthogonalLoop=1;jettySize=auto;html=1;" edge="1" parent="1" source="fFqnCry0Cv4FBEyFgxTx-262" target="fFqnCry0Cv4FBEyFgxTx-278">
          <mxGeometry relative="1" as="geometry">
            <Array as="points">
              <mxPoint x="3010" y="1260" />
              <mxPoint x="3010" y="1260" />
            </Array>
          </mxGeometry>
        </mxCell>
        <mxCell id="fFqnCry0Cv4FBEyFgxTx-262" value="AI Contract" style="whiteSpace=wrap;html=1;aspect=fixed;" vertex="1" parent="1">
          <mxGeometry x="3074" y="1204" width="80" height="80" as="geometry" />
        </mxCell>
        <mxCell id="fFqnCry0Cv4FBEyFgxTx-265" value="Gobal Validation Module" style="rounded=1;whiteSpace=wrap;html=1;" vertex="1" parent="1">
          <mxGeometry x="1025" y="533" width="98" height="49" as="geometry" />
        </mxCell>
        <mxCell id="fFqnCry0Cv4FBEyFgxTx-270" value="" style="edgeStyle=orthogonalEdgeStyle;rounded=0;orthogonalLoop=1;jettySize=auto;html=1;" edge="1" parent="1" source="fFqnCry0Cv4FBEyFgxTx-268">
          <mxGeometry relative="1" as="geometry">
            <mxPoint x="1074" y="710" as="targetPoint" />
          </mxGeometry>
        </mxCell>
        <mxCell id="fFqnCry0Cv4FBEyFgxTx-268" value="Gobal Validation Module" style="rounded=1;whiteSpace=wrap;html=1;" vertex="1" parent="1">
          <mxGeometry x="1025" y="740" width="98" height="49" as="geometry" />
        </mxCell>
        <mxCell id="fFqnCry0Cv4FBEyFgxTx-274" value="AI Contract proxy" style="whiteSpace=wrap;html=1;aspect=fixed;" vertex="1" parent="1">
          <mxGeometry x="3247" y="1205" width="80" height="80" as="geometry" />
        </mxCell>
        <mxCell id="fFqnCry0Cv4FBEyFgxTx-277" value="" style="edgeStyle=orthogonalEdgeStyle;rounded=0;orthogonalLoop=1;jettySize=auto;html=1;" edge="1" parent="1" source="fFqnCry0Cv4FBEyFgxTx-276" target="fFqnCry0Cv4FBEyFgxTx-262">
          <mxGeometry relative="1" as="geometry" />
        </mxCell>
        <mxCell id="fFqnCry0Cv4FBEyFgxTx-276" value="AI Contract&lt;br&gt;Framwork" style="shape=cube;whiteSpace=wrap;html=1;boundedLbl=1;backgroundOutline=1;darkOpacity=0.05;darkOpacity2=0.1;" vertex="1" parent="1">
          <mxGeometry x="3054" y="1006" width="120" height="80" as="geometry" />
        </mxCell>
        <mxCell id="fFqnCry0Cv4FBEyFgxTx-278" value="AI contact&lt;br&gt;Discovery ledger" style="shape=cylinder3;whiteSpace=wrap;html=1;boundedLbl=1;backgroundOutline=1;size=15;" vertex="1" parent="1">
          <mxGeometry x="2662" y="1196" width="90" height="120" as="geometry" />
        </mxCell>
        <mxCell id="fFqnCry0Cv4FBEyFgxTx-279" style="edgeStyle=orthogonalEdgeStyle;rounded=0;orthogonalLoop=1;jettySize=auto;html=1;entryX=0;entryY=0.5;entryDx=0;entryDy=0;entryPerimeter=0;" edge="1" parent="1" source="fFqnCry0Cv4FBEyFgxTx-235" target="fFqnCry0Cv4FBEyFgxTx-278">
          <mxGeometry relative="1" as="geometry">
            <Array as="points">
              <mxPoint x="2669" y="1395" />
              <mxPoint x="2669" y="1395" />
            </Array>
          </mxGeometry>
        </mxCell>
        <mxCell id="fFqnCry0Cv4FBEyFgxTx-284" value="" style="edgeStyle=orthogonalEdgeStyle;rounded=0;orthogonalLoop=1;jettySize=auto;html=1;" edge="1" parent="1" source="fFqnCry0Cv4FBEyFgxTx-235" target="fFqnCry0Cv4FBEyFgxTx-283">
          <mxGeometry relative="1" as="geometry">
            <mxPoint x="2441" y="1340" as="sourcePoint" />
            <mxPoint x="2441" y="1010" as="targetPoint" />
          </mxGeometry>
        </mxCell>
        <mxCell id="fFqnCry0Cv4FBEyFgxTx-289" style="edgeStyle=orthogonalEdgeStyle;rounded=0;orthogonalLoop=1;jettySize=auto;html=1;" edge="1" parent="1" source="fFqnCry0Cv4FBEyFgxTx-283" target="fFqnCry0Cv4FBEyFgxTx-286">
          <mxGeometry relative="1" as="geometry" />
        </mxCell>
        <mxCell id="fFqnCry0Cv4FBEyFgxTx-293" style="edgeStyle=orthogonalEdgeStyle;rounded=0;orthogonalLoop=1;jettySize=auto;html=1;entryX=0;entryY=0.5;entryDx=0;entryDy=0;" edge="1" parent="1" source="fFqnCry0Cv4FBEyFgxTx-283" target="fFqnCry0Cv4FBEyFgxTx-287">
          <mxGeometry relative="1" as="geometry" />
        </mxCell>
        <mxCell id="fFqnCry0Cv4FBEyFgxTx-283" value="AIVM LLM" style="rounded=0;whiteSpace=wrap;html=1;" vertex="1" parent="1">
          <mxGeometry x="2386" y="1036" width="110" height="160" as="geometry" />
        </mxCell>
        <mxCell id="fFqnCry0Cv4FBEyFgxTx-286" value="Query" style="rounded=1;whiteSpace=wrap;html=1;" vertex="1" parent="1">
          <mxGeometry x="2646" y="1086" width="120" height="60" as="geometry" />
        </mxCell>
        <mxCell id="fFqnCry0Cv4FBEyFgxTx-287" value="Contract Initializer" style="rounded=1;whiteSpace=wrap;html=1;" vertex="1" parent="1">
          <mxGeometry x="2646" y="1016" width="120" height="60" as="geometry" />
        </mxCell>
        <mxCell id="fFqnCry0Cv4FBEyFgxTx-292" style="edgeStyle=orthogonalEdgeStyle;rounded=0;orthogonalLoop=1;jettySize=auto;html=1;" edge="1" parent="1" source="fFqnCry0Cv4FBEyFgxTx-290" target="fFqnCry0Cv4FBEyFgxTx-283">
          <mxGeometry relative="1" as="geometry" />
        </mxCell>
        <mxCell id="fFqnCry0Cv4FBEyFgxTx-290" value="Response" style="rounded=1;whiteSpace=wrap;html=1;" vertex="1" parent="1">
          <mxGeometry x="2161" y="1086" width="120" height="60" as="geometry" />
        </mxCell>
      </root>
    </mxGraphModel>
  </diagram>
</mxfile>
